<svg width="1440" height="1019" viewBox="0 0 1440 1019" fill="none" xmlns="http://www.w3.org/2000/svg">
<g clip-path="url(#clip0_6_58)">
<rect width="1440" height="1019" fill="#DFE700"/>
<path fill-rule="evenodd" clip-rule="evenodd" d="M196.076 367.49C170.412 376.425 142.838 381.281 114.129 381.281C-23.4611 381.281 -135 269.742 -135 132.152C-135 4.27695 -38.6563 -101.096 85.4036 -115.339V-116.977H114.129H1326.87H1366.04V-113.915C1485.02 -95.1247 1576 7.88923 1576 132.152C1576 269.742 1464.46 381.281 1326.87 381.281C1322.57 381.281 1318.3 381.172 1314.06 380.957C1281.47 480.605 1187.75 552.59 1077.22 552.59C1024.48 552.59 975.567 536.202 935.297 508.24C892.105 582.248 811.849 631.977 719.978 631.977C640.535 631.977 569.778 594.793 524.16 536.88C497.004 547.037 467.6 552.59 436.9 552.59C321.446 552.59 224.335 474.054 196.076 367.49Z" fill="#955CCA"/>
</g>
<defs>
<clipPath id="clip0_6_58">
<rect width="1440" height="1019" fill="white"/>
</clipPath>
</defs>
</svg>
