<svg width="106" height="54" viewBox="0 0 106 54" fill="none" xmlns="http://www.w3.org/2000/svg">
<g clip-path="url(#clip0_2_138)">
<path d="M106 19.3011C106 26.8885 100.958 33.8064 93.2262 35.8706C86.7833 37.6 79.5561 31.5748 77.0909 22.4253C74.6258 13.2758 77.8753 4.4611 84.3182 2.73163C93.5064 0.276889 102.919 5.68847 105.384 14.8379C105.832 16.3443 106 17.8506 106 19.3011Z" fill="#00A73C"/>
<path d="M0 18.7989C0 11.2115 5.09831 4.29361 12.7738 2.2294C19.2167 0.499923 26.444 6.52519 28.9091 15.6747C31.3742 24.8241 28.1247 33.6389 21.6818 35.3683C12.4937 37.8231 3.02537 32.4115 0.616279 23.262C0.168076 21.7557 0 20.2494 0 18.7989Z" fill="#B60081"/>
<path d="M77.0909 22.4251C74.6258 13.2757 77.8753 4.46093 84.3182 2.73146C79.9482 3.90304 76.7548 6.13462 71.2643 6.13462C58.0983 6.13462 42.9715 0.555671 27.1723 0.444092C22.4102 0.499881 17.592 0.946197 12.7738 2.22935C19.2167 0.499881 26.444 6.52515 28.9091 15.6746C31.3742 24.8241 28.1248 33.6388 21.6818 35.3683C26.0518 34.1967 29.2453 31.9651 34.7358 31.9651C47.9577 31.9651 63.2527 37.6557 79.1639 37.6557C83.814 37.6557 88.5761 37.1536 93.2823 35.9262C86.7833 37.5999 79.5561 31.5746 77.0909 22.4251Z" fill="#E60013"/>
<path d="M24.5391 12.8853C23.9228 12.2716 23.1385 11.7695 22.1861 11.3789C21.2336 10.9884 20.1131 10.821 18.8245 10.821H15.2949C14.7347 10.821 14.2865 10.9326 13.8943 11.2674C13.5581 11.5463 13.334 11.881 13.334 12.2716V25.8284C13.334 26.2189 13.5581 26.5537 13.8943 26.8326C14.2305 27.1116 14.7347 27.2789 15.2949 27.2232H18.8245C20.1131 27.2232 21.1776 27.0558 22.13 26.721C23.0825 26.3863 23.8668 25.8842 24.4831 25.2705C25.0994 24.6568 25.5476 23.9316 25.8837 23.1505C26.1639 22.3695 26.3319 21.4768 26.3319 20.5284V17.7947C26.3319 16.8463 26.1639 15.9537 25.8837 15.061C25.6596 14.28 25.1554 13.5547 24.5391 12.8853ZM22.6343 17.6274V20.9189C22.6343 22.0347 22.2981 22.8158 21.6258 23.3179C20.9535 23.8758 20.0571 24.1547 18.8245 24.1547H17.0877V14.001H18.8245C20.0571 14.001 20.9535 14.3358 21.6258 14.9495C22.2981 15.5631 22.6343 16.4558 22.6343 17.6274Z" fill="white"/>
<path d="M39.61 15.842C39.0497 15.2841 38.3774 14.8378 37.5931 14.5589C36.7527 14.2241 35.8002 14.1125 34.7358 14.1125C33.6153 14.1125 32.6628 14.2799 31.8224 14.5589C30.9821 14.8378 30.3098 15.2841 29.8055 15.842C29.3013 16.3999 28.9091 17.0136 28.629 17.7389C28.3489 18.4641 28.2368 19.2452 28.2368 20.0262V21.7557C28.2368 22.5368 28.3489 23.262 28.629 23.9873C28.9091 24.7125 29.3013 25.3262 29.8055 25.8283C30.3658 26.3304 31.0381 26.7768 31.8224 27.0557C32.6628 27.3347 33.6153 27.502 34.7358 27.502C35.8002 27.502 36.7527 27.3347 37.5931 27.0557C38.4334 26.7768 39.1057 26.3304 39.61 25.8283C40.1702 25.3262 40.5624 24.7125 40.7865 23.9873C41.0666 23.3178 41.1787 22.5368 41.1787 21.8115V20.0262C41.1787 19.2452 41.0666 18.4641 40.7865 17.7389C40.5624 17.0136 40.1702 16.3999 39.61 15.842ZM37.425 19.9704V21.7557C37.425 22.6483 37.2009 23.262 36.6966 23.6525C36.2484 24.0989 35.5761 24.322 34.6797 24.322C33.7833 24.322 33.111 24.0989 32.6628 23.6525C32.2146 23.2062 31.9345 22.5925 31.9345 21.6999V19.9147C31.9345 18.9662 32.1586 18.2968 32.6628 17.8504C33.111 17.4041 33.7833 17.1252 34.6797 17.1252C35.5761 17.1252 36.2484 17.3483 36.6966 17.8504C37.2009 18.3525 37.425 19.022 37.425 19.9704Z" fill="white"/>
<path d="M54.5687 12.2716C54.5687 12.16 54.5687 12.0484 54.5127 11.9368C54.4006 11.4905 54.1205 11.1558 53.6723 10.9326C53.2801 10.7095 52.944 10.5979 52.5518 10.5979C52.4397 10.5979 52.3837 10.5979 52.2717 10.5979C51.8235 10.6537 51.4873 10.8211 51.2072 11.1L47.4535 17.739L43.6998 11.2116C43.4197 10.9326 43.0835 10.7653 42.6353 10.7095C42.5232 10.7095 42.4672 10.7095 42.3552 10.7095C41.963 10.7095 41.6268 10.8211 41.2347 11.0442C40.7865 11.2674 40.5063 11.6021 40.3943 12.0484C40.3383 12.0484 40.3383 12.16 40.3383 12.2716C40.3383 12.5505 40.4503 12.7737 40.6184 12.9968L45.4926 21.1421V26.0516C45.4926 26.4421 45.7167 26.7768 45.9968 27.0558C46.333 27.3347 46.8372 27.5021 47.3975 27.5021C47.9017 27.5021 48.3499 27.3347 48.686 27.0558C49.0222 26.7768 49.1903 26.4421 49.1903 26.0516V21.4211L54.3446 12.9968C54.5127 12.7737 54.5687 12.5505 54.5687 12.2716Z" fill="white"/>
<path d="M65.1015 15.842C64.5412 15.2841 63.8689 14.8378 63.0285 14.5589C62.1882 14.2241 61.2357 14.1125 60.1712 14.1125C59.0507 14.1125 58.0983 14.2799 57.2579 14.5589C56.4175 14.8378 55.7452 15.2841 55.241 15.842C54.7368 16.3999 54.2886 17.0136 54.0645 17.7389C53.7844 18.4641 53.6723 19.2452 53.6723 20.0262V21.7557C53.6723 22.5368 53.7844 23.262 54.0645 23.9873C54.3446 24.6568 54.7368 25.3262 55.241 25.8283C55.8013 26.3304 56.4736 26.7768 57.2579 27.0557C58.0983 27.3347 59.0507 27.502 60.1712 27.502C61.2357 27.502 62.1882 27.3347 63.0285 27.0557C63.8689 26.7768 64.5412 26.3304 65.0454 25.8283C65.6057 25.3262 65.9979 24.7125 66.222 23.9873C66.5021 23.3178 66.6142 22.5368 66.6142 21.8115V20.0262C66.6142 19.2452 66.5021 18.4641 66.222 17.7389C66.0539 17.0136 65.6617 16.3999 65.1015 15.842ZM62.9725 19.9704V21.7557C62.9725 22.6483 62.7484 23.262 62.2442 23.6525C61.74 24.0989 61.1237 24.322 60.2273 24.322C59.3309 24.322 58.6586 24.0989 58.2104 23.6525C57.7622 23.2062 57.482 22.5925 57.482 21.7557V19.9704C57.482 19.022 57.7061 18.3525 58.2104 17.9062C58.7146 17.4599 59.3309 17.181 60.2273 17.181C61.1237 17.181 61.796 17.4041 62.2442 17.9062C62.6924 18.3525 62.9725 19.022 62.9725 19.9704Z" fill="white"/>
<path d="M77.6512 18.9662C77.0349 18.5757 76.3626 18.2409 75.6903 18.0178C75.018 17.7946 74.3457 17.5157 73.7854 17.2925C73.2252 17.0694 72.7209 16.7904 72.3848 16.5115C72.0486 16.2325 71.8806 15.8978 71.8806 15.4515C71.8806 14.8936 72.0486 14.503 72.4408 14.2241C72.833 13.9451 73.2812 13.7778 73.8975 13.7778C74.6258 13.7778 75.2421 13.8894 75.6343 14.0567C76.0825 14.2799 76.4186 14.4472 76.5867 14.6146C76.8108 14.782 77.0349 14.8936 77.259 15.0609C77.5391 15.1725 77.8192 15.2841 78.1554 15.2841C78.7157 15.2841 79.1078 15.1725 79.388 14.8378C79.6681 14.5588 79.7801 14.1683 79.7801 13.722C79.7801 13.3872 79.6121 13.1083 79.388 12.7736C79.1078 12.4388 78.7717 12.1041 78.2674 11.7694C77.7632 11.4346 77.203 11.2115 76.4746 10.9883C75.7463 10.7651 74.9059 10.6536 74.0095 10.6536C73.1131 10.6536 72.2727 10.7651 71.5444 10.9883C70.8161 11.2115 70.1998 11.5462 69.6956 11.9925C69.1913 12.4388 68.7992 12.9409 68.519 13.5546C68.2389 14.1683 68.1269 14.8378 68.1269 15.563C68.1269 16.4557 68.351 17.2367 68.7431 17.8504C69.1353 18.4083 69.6956 18.9104 70.3118 19.3009C70.9281 19.6915 71.6004 20.0262 72.2727 20.2494C72.945 20.4725 73.6173 20.7515 74.1776 21.0304C74.7378 21.3094 75.2421 21.5883 75.6343 21.923C75.9704 22.202 76.1385 22.5925 76.1385 23.0388C76.1385 23.5967 75.9704 23.9872 75.6343 24.2104C75.2981 24.4336 74.7378 24.6009 74.0655 24.6009C73.4493 24.6009 72.889 24.4894 72.3288 24.322C71.7685 24.0988 71.3763 23.8757 71.0962 23.6525C70.8721 23.4851 70.648 23.3178 70.3679 23.1504C70.0877 22.983 69.7516 22.8715 69.4154 22.8715C68.9112 22.8715 68.463 22.983 68.1829 23.2062C67.9028 23.4294 67.7347 23.8199 67.7347 24.2662C67.7347 24.6567 67.8467 25.0472 68.1269 25.382C68.351 25.7167 68.6871 25.9399 69.0233 26.2188C69.3594 26.442 69.8076 26.6651 70.2558 26.8325C70.704 26.9999 71.1522 27.1672 71.6004 27.2788C72.0486 27.3904 72.4968 27.502 72.889 27.5578C73.2812 27.6136 73.6734 27.6694 73.9535 27.6694C75.7463 27.6694 77.203 27.2788 78.2674 26.3862C79.3319 25.5494 79.8922 24.322 79.8922 22.8715C79.8922 21.923 79.6681 21.142 79.2759 20.5283C78.7717 19.8588 78.2675 19.3567 77.6512 18.9662Z" fill="white"/>
<path d="M91.2653 21.7558C92.0497 21.7558 92.6659 21.5885 93.1141 21.1979C93.5063 20.8074 93.6744 20.1937 93.6744 19.3569C93.6744 18.7432 93.5623 18.1295 93.3382 17.5158C93.1141 16.9021 92.722 16.2885 92.2738 15.7864C91.7695 15.2843 91.1533 14.8379 90.3689 14.559C89.5845 14.2243 88.6881 14.0569 87.6237 14.0569C86.7272 14.0569 85.8869 14.2243 85.1025 14.5032C84.3182 14.7821 83.7019 15.1727 83.1416 15.6748C82.5814 16.1769 82.1332 16.7906 81.853 17.46C81.5169 18.1295 81.3488 18.8548 81.3488 19.6358V22.2579C81.3488 22.9832 81.5169 23.6527 81.853 24.3221C82.1892 24.9358 82.6374 25.4937 83.2537 25.9958C83.8139 26.4421 84.5423 26.8327 85.3266 27.1116C86.111 27.3906 87.0074 27.5021 87.9598 27.5021C88.6321 27.5021 89.3044 27.4464 89.9207 27.279C90.537 27.1116 91.0412 26.9443 91.5454 26.7211C91.9936 26.4979 92.3858 26.219 92.6659 25.94C92.9461 25.6611 93.1141 25.3264 93.1141 24.9916C93.1141 24.6011 92.9461 24.2664 92.722 24.0432C92.4418 23.7643 92.1057 23.6527 91.7135 23.6527C91.4334 23.6527 91.2093 23.7085 90.9292 23.8758C90.7051 23.9874 90.4249 24.099 90.2008 24.2106C89.9767 24.2664 89.6966 24.3779 89.3044 24.4337C88.9122 24.4895 88.464 24.5453 87.9598 24.5453C87.0074 24.5453 86.3351 24.3221 85.8308 23.8758C85.3266 23.4295 85.1025 22.8716 85.1025 22.1464V21.7558H91.2653ZM84.9905 19.4685C84.9905 18.6874 85.3826 18.0179 85.7748 17.6274C86.223 17.1811 86.7833 17.0137 87.5676 17.0137C88.352 17.0137 88.9683 17.1811 89.4165 17.5716C89.8647 17.9064 90.0888 18.3527 90.0888 18.9664V19.4685H84.9905Z" fill="white"/>
<path d="M30.0296 50.4874V40.2222H36.5846V41.6169H31.5983V44.5737H35.8562V45.9685H31.5983V49.0369H36.5846V50.4874H30.0296Z" fill="#666565"/>
<path d="M43.0275 50.4874V46.0242C43.0275 45.4663 42.8594 45.02 42.5793 44.7969C42.2992 44.5179 41.963 44.4063 41.5148 44.4063C41.1226 44.4063 40.7305 44.5179 40.4503 44.7969C40.1702 45.0758 40.0021 45.4663 40.0021 46.0242V50.4874H38.5455V43.179H40.0021V43.9042C40.2262 43.6253 40.5624 43.4021 40.8985 43.2905C41.2347 43.179 41.5708 43.0674 41.963 43.0674C42.3552 43.0674 42.6913 43.1232 42.9715 43.2347C43.2516 43.3463 43.5317 43.5137 43.7558 43.7369C44.036 44.0158 44.204 44.3505 44.3161 44.6853C44.4281 45.02 44.4842 45.4105 44.4842 45.8011V50.4874H43.0275Z" fill="#666565"/>
<path d="M52.2156 51.659C52.0475 52.0495 51.8795 52.3842 51.5993 52.6074C51.3192 52.8863 50.9831 53.1095 50.5909 53.2769C50.1987 53.4442 49.7505 53.5 49.2463 53.5C48.686 53.5 48.2378 53.4442 47.8456 53.2769C47.4535 53.1095 47.0613 52.8863 46.6691 52.5516L47.6215 51.6032C47.8456 51.8263 48.0697 51.9937 48.2938 52.1053C48.5179 52.2169 48.7981 52.2726 49.1903 52.2726C49.5264 52.2726 49.7505 52.2169 49.9746 52.1053C50.1987 51.9937 50.3668 51.8821 50.5349 51.7148C50.7029 51.5474 50.759 51.3242 50.815 51.1011C50.871 50.8779 50.927 50.6547 50.927 50.3758V49.4274C50.6469 49.7621 50.3668 49.9853 50.0306 50.0969C49.7505 50.2084 49.3583 50.2642 49.0222 50.2642C48.63 50.2642 48.3499 50.2084 48.0137 50.0969C47.7336 49.9853 47.4535 49.8179 47.2854 49.5947C46.9492 49.26 46.7251 48.8137 46.6131 48.3116C46.501 47.8095 46.445 47.2516 46.445 46.6379C46.445 46.0242 46.501 45.4663 46.6131 44.9642C46.7251 44.4621 46.9492 44.0158 47.2854 43.6811C47.7336 43.2348 48.2938 43.0674 49.0782 43.0674C49.4704 43.0674 49.8065 43.1232 50.1427 43.2347C50.4228 43.3463 50.759 43.5695 51.0391 43.9042V43.1232H52.4957V50.3758C52.3837 50.8779 52.3277 51.2684 52.2156 51.659ZM50.871 45.8569C50.815 45.5779 50.759 45.3547 50.6469 45.1316C50.5349 44.9084 50.3668 44.7411 50.1987 44.6295C49.9746 44.5179 49.7505 44.4621 49.4144 44.4621C49.0782 44.4621 48.7981 44.5179 48.63 44.6295C48.4059 44.7411 48.2938 44.9084 48.1818 45.1316C48.0697 45.3547 48.0137 45.5779 47.9577 45.8569C47.9017 46.1358 47.9017 46.4148 47.9017 46.6937C47.9017 46.9726 47.9017 47.2516 47.9577 47.5305C48.0137 47.8095 48.0697 48.0326 48.1818 48.2558C48.2938 48.479 48.4059 48.6463 48.63 48.7579C48.8541 48.8695 49.0782 48.9253 49.4144 48.9253C49.7505 48.9253 50.0306 48.8695 50.1987 48.7579C50.4228 48.6463 50.5349 48.479 50.6469 48.2558C50.759 48.0326 50.815 47.8095 50.871 47.5305C50.927 47.2516 50.927 46.9726 50.927 46.6937C50.927 46.4148 50.927 46.08 50.871 45.8569Z" fill="#666565"/>
<path d="M56.6977 50.4874C56.3615 50.4874 56.0254 50.4316 55.8013 50.3201C55.5212 50.2085 55.3531 50.0411 55.185 49.8737C55.0169 49.7064 54.9049 49.4832 54.8489 49.2601C54.7928 49.0369 54.7368 48.758 54.7368 48.479V40.2222H56.1935V48.3674C56.1935 48.6464 56.2495 48.8695 56.3615 48.9811C56.4736 49.1485 56.6977 49.2043 56.9778 49.2043H57.6501V50.4316H56.6977V50.4874Z" fill="#666565"/>
<path d="M59.2188 40.1663H60.7875V41.7284H59.2188V40.1663ZM59.2748 43.1789H60.7315V50.4873H59.2748V43.1789Z" fill="#666565"/>
<path d="M68.295 49.26C68.1269 49.539 67.9028 49.8179 67.6787 49.9853C67.3986 50.2084 67.0624 50.32 66.7262 50.4316C66.3341 50.5432 65.9419 50.599 65.4937 50.599C64.8774 50.599 64.3172 50.5432 63.8129 50.3758C63.3087 50.2084 62.8045 49.9295 62.4123 49.539L63.3647 48.5905C63.6449 48.9253 63.981 49.0926 64.3732 49.2042C64.7654 49.3158 65.1015 49.3716 65.4937 49.3716C65.9419 49.3716 66.3341 49.3158 66.6142 49.1484C66.9504 48.9811 67.0624 48.7579 67.0624 48.3674C67.0624 48.1442 67.0064 47.9211 66.8383 47.7537C66.6702 47.5863 66.4461 47.5305 66.0539 47.4747L64.8774 47.3632C64.2051 47.3074 63.6449 47.14 63.2527 46.8053C62.8605 46.4705 62.6924 46.0242 62.6924 45.3547C62.6924 45.02 62.7484 44.6853 62.9165 44.4063C63.0846 44.1274 63.2527 43.9042 63.5328 43.6811C63.7569 43.5137 64.0931 43.3463 64.4292 43.2347C64.7654 43.1232 65.1015 43.0674 65.4937 43.0674C66.0539 43.0674 66.5582 43.1232 67.0064 43.2347C67.4546 43.3463 67.8468 43.5695 68.1829 43.8484L67.2305 44.7969C67.0064 44.6295 66.7263 44.4621 66.3901 44.4063C66.0539 44.3505 65.7738 44.2947 65.3816 44.2947C64.9334 44.2947 64.5973 44.4063 64.3732 44.5737C64.1491 44.7411 64.037 44.9642 64.037 45.2432C64.037 45.4663 64.0931 45.6337 64.2611 45.8011C64.4292 45.9684 64.6533 46.0242 65.0455 46.08L66.222 46.1916C66.8943 46.2474 67.4546 46.4705 67.8468 46.7495C68.2389 47.0842 68.407 47.5863 68.407 48.2C68.5191 48.5905 68.407 48.9253 68.295 49.26Z" fill="#666565"/>
<path d="M74.7378 50.4874V46.0243C74.7378 45.4664 74.5698 45.0759 74.2896 44.7969C74.0095 44.518 73.6733 44.4064 73.2251 44.4064C72.833 44.4064 72.4408 44.518 72.1607 44.7969C71.8805 45.0759 71.7125 45.4664 71.7125 46.0243V50.4874H70.2558V40.2222H71.7125V43.9043C71.9366 43.6253 72.2727 43.4022 72.5528 43.2906C72.889 43.179 73.2251 43.0674 73.5613 43.0674C73.9535 43.0674 74.3457 43.1232 74.6258 43.2348C74.9619 43.3464 75.186 43.5695 75.4101 43.7927C75.6342 44.0159 75.8023 44.2948 75.9144 44.6295C76.0264 44.9643 76.0824 45.299 76.0824 45.7453V50.4316H74.7378V50.4874Z" fill="#666565"/>
</g>
<defs>
<clipPath id="clip0_2_138">
<rect width="106" height="53" fill="white" transform="translate(0 0.5)"/>
</clipPath>
</defs>
</svg>
