<svg width="150" height="76" viewBox="0 0 150 76" fill="none" xmlns="http://www.w3.org/2000/svg">
<path d="M150 26.6842C150 37.421 142.865 47.2105 131.924 50.1315C122.807 52.5789 112.579 44.0526 109.091 31.1052C105.603 18.1579 110.201 5.68418 119.318 3.23681C132.32 -0.23687 145.64 7.42102 149.128 20.3684C149.762 22.5 150 24.6315 150 26.6842Z" fill="#00A73C"/>
<path d="M0 25.9735C0 15.2366 7.21459 5.44716 18.0761 2.52611C27.1934 0.0787437 37.4207 8.60506 40.9091 21.5524C44.3975 34.4998 39.7992 46.9735 30.6818 49.4208C17.6797 52.8945 4.28118 45.2366 0.872093 32.2893C0.237844 30.1577 0 28.0261 0 25.9735Z" fill="#B60081"/>
<path d="M109.091 31.1053C105.602 18.1579 110.201 5.68421 119.318 3.23684C113.134 4.89474 108.615 8.05263 100.846 8.05263C82.2145 8.05263 60.8086 0.157895 38.4513 0C31.7124 0.0789474 24.8942 0.710526 18.076 2.52632C27.1934 0.0789473 37.4207 8.60526 40.909 21.5526C44.3974 34.5 39.7991 46.9737 30.6818 49.4211C36.8657 47.7632 41.3847 44.6053 49.1543 44.6053C67.8646 44.6053 89.5084 52.6579 112.024 52.6579C118.605 52.6579 125.343 51.9474 132.003 50.2105C122.806 52.5789 112.579 44.0526 109.091 31.1053Z" fill="#E60013"/>
<path d="M34.7251 17.6051C33.853 16.7367 32.7431 16.0262 31.3953 15.4736C30.0475 14.9209 28.4619 14.6841 26.6385 14.6841H21.6437C20.8509 14.6841 20.2167 14.842 19.6617 15.3157C19.186 15.7104 18.8689 16.1841 18.8689 16.7367V35.9209C18.8689 36.4736 19.186 36.9472 19.6617 37.342C20.1374 37.7367 20.8509 37.9736 21.6437 37.8946H26.6385C28.4619 37.8946 29.9683 37.6578 31.316 37.1841C32.6638 36.7104 33.7738 35.9999 34.6459 35.1315C35.5179 34.263 36.1522 33.2367 36.6279 32.1315C37.0243 31.0262 37.2621 29.763 37.2621 28.4209V24.5525C37.2621 23.2104 37.0243 21.9472 36.6279 20.6841C36.3108 19.5788 35.5972 18.5525 34.7251 17.6051ZM32.0296 24.3157V28.9736C32.0296 30.5525 31.5539 31.6578 30.6025 32.3683C29.6511 33.1578 28.3826 33.5525 26.6385 33.5525H24.1807V19.1841H26.6385C28.3826 19.1841 29.6511 19.6578 30.6025 20.5262C31.5539 21.3946 32.0296 22.6578 32.0296 24.3157Z" fill="white"/>
<path d="M56.0518 21.7894C55.259 20.9999 54.3077 20.3684 53.1977 19.9736C52.0085 19.4999 50.6607 19.342 49.1544 19.342C47.5688 19.342 46.221 19.5789 45.0318 19.9736C43.8425 20.3684 42.8912 20.9999 42.1776 21.7894C41.4641 22.5789 40.9091 23.4473 40.5127 24.4736C40.1163 25.4999 39.9578 26.6052 39.9578 27.7105V30.1578C39.9578 31.2631 40.1163 32.2894 40.5127 33.3157C40.9091 34.342 41.4641 35.2105 42.1776 35.921C42.9704 36.6315 43.9218 37.2631 45.0318 37.6578C46.221 38.0526 47.5688 38.2894 49.1544 38.2894C50.6607 38.2894 52.0085 38.0526 53.1977 37.6578C54.3869 37.2631 55.3383 36.6315 56.0518 35.921C56.8447 35.2105 57.3996 34.342 57.7168 33.3157C58.1132 32.3684 58.2717 31.2631 58.2717 30.2368V27.7105C58.2717 26.6052 58.1132 25.4999 57.7168 24.4736C57.3996 23.4473 56.8447 22.5789 56.0518 21.7894ZM52.9599 27.6315V30.1578C52.9599 31.421 52.6428 32.2894 51.9292 32.842C51.295 33.4736 50.3436 33.7894 49.0751 33.7894C47.8066 33.7894 46.8552 33.4736 46.221 32.842C45.5867 32.2105 45.1903 31.342 45.1903 30.0789V27.5526C45.1903 26.2105 45.5074 25.2631 46.221 24.6315C46.8552 23.9999 47.8066 23.6052 49.0751 23.6052C50.3436 23.6052 51.295 23.921 51.9292 24.6315C52.6428 25.342 52.9599 26.2894 52.9599 27.6315Z" fill="white"/>
<path d="M77.2198 16.7368C77.2198 16.5789 77.2198 16.421 77.1405 16.2631C76.982 15.6316 76.5856 15.1579 75.9513 14.8421C75.3964 14.5263 74.9207 14.3684 74.3657 14.3684C74.2071 14.3684 74.1279 14.3684 73.9693 14.3684C73.335 14.4474 72.8594 14.6842 72.4629 15.0789L67.1511 24.4737L61.8393 15.2368C61.4429 14.8421 60.9672 14.6052 60.3329 14.5263C60.1744 14.5263 60.0951 14.5263 59.9365 14.5263C59.3816 14.5263 58.9059 14.6842 58.3509 15C57.7166 15.3158 57.3202 15.7895 57.1617 16.421C57.0824 16.421 57.0824 16.5789 57.0824 16.7368C57.0824 17.1316 57.241 17.4474 57.4788 17.7631L64.3763 29.2895V36.2368C64.3763 36.7895 64.6934 37.2631 65.0898 37.6579C65.5655 38.0526 66.279 38.2895 67.0718 38.2895C67.7854 38.2895 68.4196 38.0526 68.8953 37.6579C69.371 37.2631 69.6088 36.7895 69.6088 36.2368V29.6842L76.9027 17.7631C77.1405 17.4474 77.2198 17.1316 77.2198 16.7368Z" fill="white"/>
<path d="M92.1248 21.7894C91.332 20.9999 90.3806 20.3684 89.1914 19.9736C88.0022 19.4999 86.6544 19.342 85.148 19.342C83.5624 19.342 82.2146 19.5789 81.0254 19.9736C79.8362 20.3684 78.8848 20.9999 78.1713 21.7894C77.4578 22.5789 76.8235 23.4473 76.5064 24.4736C76.11 25.4999 75.9514 26.6052 75.9514 27.7105V30.1578C75.9514 31.2631 76.11 32.2894 76.5064 33.3157C76.9028 34.2631 77.4578 35.2105 78.1713 35.921C78.9641 36.6315 79.9155 37.2631 81.0254 37.6578C82.2146 38.0526 83.5624 38.2894 85.148 38.2894C86.6544 38.2894 88.0022 38.0526 89.1914 37.6578C90.3806 37.2631 91.332 36.6315 92.0455 35.921C92.8383 35.2105 93.3933 34.342 93.7104 33.3157C94.1068 32.3684 94.2654 31.2631 94.2654 30.2368V27.7105C94.2654 26.6052 94.1068 25.4999 93.7104 24.4736C93.4726 23.4473 92.9176 22.5789 92.1248 21.7894ZM89.1121 27.6315V30.1578C89.1121 31.421 88.795 32.2894 88.0814 32.842C87.3679 33.4736 86.4958 33.7894 85.2273 33.7894C83.9588 33.7894 83.0074 33.4736 82.3732 32.842C81.7389 32.2105 81.3425 31.342 81.3425 30.1578V27.6315C81.3425 26.2894 81.6597 25.342 82.3732 24.7105C83.0867 24.0789 83.9588 23.6841 85.2273 23.6841C86.4958 23.6841 87.4472 23.9999 88.0814 24.7105C88.7157 25.342 89.1121 26.2894 89.1121 27.6315Z" fill="white"/>
<path d="M109.884 26.2104C109.012 25.6578 108.06 25.1841 107.109 24.8683C106.158 24.5525 105.206 24.1578 104.413 23.842C103.621 23.5262 102.907 23.1315 102.431 22.7367C101.956 22.342 101.718 21.8683 101.718 21.2367C101.718 20.4473 101.956 19.8946 102.511 19.4999C103.066 19.1052 103.7 18.8683 104.572 18.8683C105.603 18.8683 106.475 19.0262 107.03 19.2631C107.664 19.5788 108.14 19.8157 108.377 20.0525C108.695 20.2894 109.012 20.4473 109.329 20.6841C109.725 20.842 110.122 20.9999 110.597 20.9999C111.39 20.9999 111.945 20.842 112.341 20.3683C112.738 19.9736 112.896 19.4209 112.896 18.7894C112.896 18.3157 112.659 17.9209 112.341 17.4473C111.945 16.9736 111.469 16.4999 110.756 16.0262C110.042 15.5525 109.249 15.2367 108.219 14.9209C107.188 14.6052 105.999 14.4473 104.73 14.4473C103.462 14.4473 102.273 14.6052 101.242 14.9209C100.211 15.2367 99.3393 15.7104 98.6258 16.342C97.9123 16.9736 97.3573 17.6841 96.9609 18.5525C96.5645 19.4209 96.4059 20.3683 96.4059 21.3946C96.4059 22.6578 96.723 23.7631 97.278 24.6315C97.833 25.4209 98.6258 26.1315 99.4979 26.6841C100.37 27.2367 101.321 27.7104 102.273 28.0262C103.224 28.342 104.175 28.7367 104.968 29.1315C105.761 29.5262 106.475 29.9209 107.03 30.3946C107.505 30.7894 107.743 31.342 107.743 31.9736C107.743 32.7631 107.505 33.3157 107.03 33.6315C106.554 33.9473 105.761 34.1841 104.81 34.1841C103.938 34.1841 103.145 34.0262 102.352 33.7894C101.559 33.4736 101.004 33.1578 100.608 32.842C100.291 32.6052 99.9736 32.3683 99.5772 32.1315C99.1808 31.8946 98.7051 31.7367 98.2294 31.7367C97.5159 31.7367 96.8816 31.8946 96.4852 32.2104C96.0888 32.5262 95.851 33.0788 95.851 33.7104C95.851 34.2631 96.0095 34.8157 96.4059 35.2894C96.723 35.7631 97.1987 36.0788 97.6744 36.4736C98.1501 36.7894 98.7844 37.1052 99.4186 37.342C100.053 37.5788 100.687 37.8157 101.321 37.9736C101.956 38.1315 102.59 38.2894 103.145 38.3683C103.7 38.4473 104.255 38.5262 104.651 38.5262C107.188 38.5262 109.249 37.9736 110.756 36.7104C112.262 35.5262 113.055 33.7894 113.055 31.7367C113.055 30.3946 112.738 29.2894 112.183 28.4209C111.469 27.4736 110.756 26.7631 109.884 26.2104Z" fill="white"/>
<path d="M129.149 30.1579C130.259 30.1579 131.131 29.9211 131.765 29.3684C132.32 28.8158 132.558 27.9474 132.558 26.7632C132.558 25.8948 132.4 25.0263 132.083 24.1579C131.765 23.2895 131.21 22.4211 130.576 21.7106C129.863 21 128.991 20.3684 127.881 19.9737C126.771 19.5 125.502 19.2632 123.996 19.2632C122.727 19.2632 121.538 19.5 120.428 19.8948C119.318 20.2895 118.446 20.8421 117.653 21.5527C116.861 22.2632 116.226 23.1316 115.83 24.079C115.354 25.0263 115.116 26.0527 115.116 27.1579V30.8684C115.116 31.8948 115.354 32.8421 115.83 33.7895C116.306 34.6579 116.94 35.4474 117.812 36.1579C118.605 36.7895 119.635 37.3421 120.745 37.7369C121.855 38.1316 123.124 38.2895 124.472 38.2895C125.423 38.2895 126.374 38.2106 127.246 37.9737C128.118 37.7369 128.832 37.5 129.546 37.1842C130.18 36.8684 130.735 36.4737 131.131 36.079C131.528 35.6842 131.765 35.2106 131.765 34.7369C131.765 34.1842 131.528 33.7106 131.21 33.3948C130.814 33 130.338 32.8421 129.783 32.8421C129.387 32.8421 129.07 32.9211 128.673 33.1579C128.356 33.3158 127.96 33.4737 127.643 33.6316C127.326 33.7106 126.929 33.8684 126.374 33.9474C125.819 34.0263 125.185 34.1053 124.472 34.1053C123.124 34.1053 122.172 33.7895 121.459 33.1579C120.745 32.5263 120.428 31.7369 120.428 30.7106V30.1579H129.149ZM120.27 26.9211C120.27 25.8158 120.825 24.8684 121.38 24.3158C122.014 23.6842 122.807 23.4474 123.917 23.4474C125.026 23.4474 125.899 23.6842 126.533 24.2369C127.167 24.7106 127.484 25.3421 127.484 26.2106V26.9211H120.27Z" fill="white"/>
<path d="M42.4948 70.8156V56.2893H51.7707V58.263H44.7146V62.4472H50.74V64.4209H44.7146V68.763H51.7707V70.8156H42.4948Z" fill="white"/>
<path d="M60.8879 70.8157V64.4999C60.8879 63.7104 60.6501 63.0788 60.2537 62.763C59.8572 62.3683 59.3816 62.2104 58.7473 62.2104C58.1923 62.2104 57.6374 62.3683 57.241 62.763C56.8446 63.1578 56.6067 63.7104 56.6067 64.4999V70.8157H54.5454V60.4736H56.6067V61.4999C56.9238 61.1051 57.3995 60.7894 57.8752 60.6315C58.3509 60.4736 58.8266 60.3157 59.3816 60.3157C59.9365 60.3157 60.4122 60.3946 60.8086 60.5525C61.205 60.7104 61.6014 60.9473 61.9186 61.263C62.315 61.6578 62.5528 62.1315 62.7114 62.6051C62.8699 63.0788 62.9492 63.6315 62.9492 64.1841V70.8157H60.8879Z" fill="white"/>
<path d="M73.8901 72.4736C73.6522 73.0262 73.4144 73.4999 73.018 73.8157C72.6216 74.2104 72.1459 74.5262 71.5909 74.763C71.036 74.9999 70.4017 75.0788 69.6882 75.0788C68.8954 75.0788 68.2611 74.9999 67.7062 74.763C67.1512 74.5262 66.5962 74.2104 66.0412 73.7367L67.389 72.3946C67.7061 72.7104 68.0233 72.9473 68.3404 73.1051C68.6575 73.263 69.0539 73.342 69.6089 73.342C70.0846 73.342 70.4017 73.263 70.7188 73.1051C71.036 72.9473 71.2738 72.7894 71.5116 72.5525C71.7495 72.3157 71.8288 71.9999 71.908 71.6841C71.9873 71.3683 72.0666 71.0525 72.0666 70.6578V69.3157C71.6702 69.7894 71.2738 70.1051 70.7981 70.263C70.4017 70.4209 69.8467 70.4999 69.3711 70.4999C68.8161 70.4999 68.4197 70.4209 67.944 70.263C67.5476 70.1051 67.1512 69.8683 66.9133 69.5525C66.4377 69.0788 66.1205 68.4472 65.962 67.7367C65.8034 67.0262 65.7241 66.2367 65.7241 65.3683C65.7241 64.4999 65.8034 63.7104 65.962 62.9999C66.1205 62.2894 66.4377 61.6578 66.9133 61.1841C67.5476 60.5525 68.3404 60.3157 69.4503 60.3157C70.0053 60.3157 70.481 60.3946 70.9567 60.5525C71.3531 60.7104 71.8288 61.0262 72.2252 61.4999V60.3946H74.2865V70.6578C74.1279 71.3683 74.0486 71.9209 73.8901 72.4736ZM71.9873 64.263C71.9081 63.8683 71.8288 63.5525 71.6702 63.2367C71.5116 62.9209 71.2738 62.6841 71.036 62.5262C70.7188 62.3683 70.4017 62.2894 69.926 62.2894C69.4503 62.2894 69.0539 62.3683 68.8161 62.5262C68.499 62.6841 68.3404 62.9209 68.1818 63.2367C68.0233 63.5525 67.944 63.8683 67.8647 64.263C67.7854 64.6578 67.7854 65.0525 67.7854 65.4473C67.7854 65.842 67.7854 66.2367 67.8647 66.6315C67.944 67.0262 68.0233 67.342 68.1818 67.6578C68.3404 67.9736 68.499 68.2104 68.8161 68.3683C69.1332 68.5262 69.4503 68.6051 69.926 68.6051C70.4017 68.6051 70.7981 68.5262 71.036 68.3683C71.3531 68.2104 71.5116 67.9736 71.6702 67.6578C71.8288 67.342 71.9081 67.0262 71.9873 66.6315C72.0666 66.2367 72.0666 65.842 72.0666 65.4473C72.0666 65.0525 72.0666 64.5788 71.9873 64.263Z" fill="white"/>
<path d="M80.2326 70.8156C79.7569 70.8156 79.2812 70.7367 78.9641 70.5788C78.5677 70.4209 78.3299 70.184 78.092 69.9472C77.8542 69.7104 77.6956 69.3946 77.6163 69.0788C77.537 68.763 77.4578 68.3683 77.4578 67.9735V56.2893H79.5191V67.8156C79.5191 68.2104 79.5984 68.5262 79.7569 68.684C79.9155 68.9209 80.2326 68.9998 80.629 68.9998H81.5804V70.7367H80.2326V70.8156Z" fill="white"/>
<path d="M83.8002 56.2104H86.0201V58.421H83.8002V56.2104ZM83.8795 60.4736H85.9408V70.8157H83.8795V60.4736Z" fill="white"/>
<path d="M96.6437 69.0788C96.4059 69.4736 96.0888 69.8683 95.7716 70.1051C95.3752 70.4209 94.8996 70.5788 94.4239 70.7367C93.8689 70.8946 93.3139 70.9736 92.6797 70.9736C91.8076 70.9736 91.0148 70.8946 90.3012 70.6578C89.5877 70.4209 88.8742 70.0262 88.3192 69.4736L89.667 68.1315C90.0634 68.6051 90.5391 68.842 91.0941 68.9999C91.649 69.1578 92.1247 69.2367 92.6797 69.2367C93.3139 69.2367 93.8689 69.1578 94.2653 68.9209C94.741 68.6841 94.8996 68.3683 94.8996 67.8157C94.8996 67.4999 94.8203 67.1841 94.5824 66.9472C94.3446 66.7104 94.0275 66.6315 93.4725 66.5525L91.8076 66.3946C90.8562 66.3157 90.0634 66.0788 89.5084 65.6051C88.9535 65.1315 88.7156 64.4999 88.7156 63.5525C88.7156 63.0788 88.7949 62.6051 89.0327 62.2104C89.2706 61.8157 89.5084 61.4999 89.9048 61.1841C90.222 60.9473 90.6976 60.7104 91.1733 60.5525C91.649 60.3946 92.1247 60.3157 92.6797 60.3157C93.4725 60.3157 94.186 60.3946 94.8203 60.5525C95.4545 60.7104 96.0095 61.0262 96.4852 61.4209L95.1374 62.763C94.8203 62.5262 94.4239 62.2894 93.9482 62.2104C93.4725 62.1315 93.0761 62.0525 92.5211 62.0525C91.8869 62.0525 91.4112 62.2104 91.0941 62.4473C90.7769 62.6841 90.6184 62.9999 90.6184 63.3946C90.6184 63.7104 90.6976 63.9472 90.9355 64.1841C91.1733 64.4209 91.4905 64.4999 92.0454 64.5788L93.7103 64.7367C94.6617 64.8157 95.4545 65.1315 96.0095 65.5262C96.5645 65.9999 96.8023 66.7104 96.8023 67.5788C96.9609 68.1315 96.8023 68.6051 96.6437 69.0788Z" fill="white"/>
<path d="M105.761 70.8156V64.4998C105.761 63.7104 105.523 63.1577 105.127 62.763C104.73 62.3683 104.255 62.2104 103.62 62.2104C103.066 62.2104 102.511 62.3683 102.114 62.763C101.718 63.1577 101.48 63.7104 101.48 64.4998V70.8156H99.4186V56.2893H101.48V61.4998C101.797 61.1051 102.273 60.7893 102.669 60.6314C103.145 60.4735 103.62 60.3156 104.096 60.3156C104.651 60.3156 105.206 60.3946 105.603 60.5525C106.078 60.7104 106.395 61.0262 106.712 61.3419C107.03 61.6577 107.267 62.0525 107.426 62.5262C107.585 62.9998 107.664 63.4735 107.664 64.1051V70.7367H105.761V70.8156Z" fill="white"/>
</svg>
