<svg width="138" height="202" viewBox="0 0 138 202" fill="none" xmlns="http://www.w3.org/2000/svg">
<path d="M126.954 153.911L131.504 151.018L127.148 161.57C127.148 161.57 108.53 157.409 90.0796 164.162L111.754 144.932L126.954 153.911Z" fill="#1B55A3"/>
<path d="M124.002 152.193L126.954 153.911L131.504 151.018L127.148 161.571C127.148 161.571 124.697 161.069 120.842 160.746L124.002 152.193Z" fill="#152347"/>
<path d="M53.1395 174.667L47.88 174.522L57.103 181.404C57.103 181.404 70.8545 168.131 90.1739 164.322L61.6488 159.08L53.1395 174.667Z" fill="#1B55A3"/>
<path d="M102.947 101.746C102.947 101.746 132.514 152.367 90.0795 164.161C47.6454 175.955 46.6134 117.4 46.6134 117.4L102.947 101.746Z" fill="#1B55A3"/>
<path d="M97.2957 106.799L54.1267 118.81C55.6705 129.129 59.5649 144.544 67.5724 151.925C72.7315 156.663 79.3208 157.968 87.8208 155.558C96.1606 153.243 101.266 148.728 103.137 142.013C106.126 130.97 100.987 115.639 97.2957 106.799Z" fill="#1D60AC"/>
<path d="M119.192 147.682L113.75 142.462C113.721 142.047 113.853 141.538 113.919 141.283C114.048 137.105 113.018 134.256 113.018 134.256C113.018 134.256 109.289 138.178 84.6839 145.096C60.0791 152.014 54.894 150.531 54.894 150.531C54.894 150.531 55.6032 153.568 57.8395 157.003C58.0282 157.324 58.2169 157.644 58.5659 157.871L56.6578 165.255L81.5909 169.156C81.5909 169.156 86.9706 166.207 90.3254 165.313C93.6802 164.418 99.7405 164.092 99.7405 164.092L119.192 147.682Z" fill="#F4A729"/>
<path d="M90.6199 64.3029C90.6199 64.3029 92.4136 55.2584 85.7014 53.3775C78.9891 51.4966 77.4672 58.4378 77.4672 58.4378C72.1506 57.4632 66.5993 57.9222 60.8793 59.5601C55.1593 61.198 50.1656 63.7041 46.1529 67.1445C46.1529 67.1445 41.1253 61.8973 36.3975 67.054C31.6697 72.2107 37.9612 78.8735 37.9612 78.8735C35.3554 85.8047 34.9659 94.6707 37.914 104.812C44.8881 129.859 77.501 118.229 77.501 118.229C77.501 118.229 111.352 111.269 104.472 86.3824C101.27 76.1748 96.3539 68.9186 90.6199 64.3029Z" fill="#1D60AC"/>
<path d="M68.0995 85.7576C68.0995 85.7576 81.3958 81.6057 85.0815 95.1997C89.3906 110.586 75.8484 113.587 75.8484 113.587C75.8484 113.587 62.7409 118.06 58.4318 102.673C54.6517 88.9191 68.0995 85.7576 68.0995 85.7576Z" fill="#5393CE"/>
<path d="M70.7755 98.0021L69.443 93.172C69.3201 92.5966 69.546 92.2477 70.0265 91.9651C70.4412 91.937 70.9503 92.0693 71.0732 92.6448L72.4057 97.4748C72.5287 98.0503 72.3027 98.3991 71.8222 98.6818C71.2474 98.8041 70.8041 98.4171 70.7755 98.0021Z" fill="#060A1D"/>
<path d="M73.6445 90.0526C74.0792 91.5243 72.4403 93.1362 70.2352 93.7857C68.0302 94.4353 65.8996 93.7455 65.4649 92.2738C65.0303 90.8021 66.6691 89.1902 68.8742 88.5407C71.1736 88.0515 73.2099 88.5809 73.6445 90.0526Z" fill="#060A1D"/>
<path d="M54.4595 97.0214C52.735 97.3882 50.8303 96.3495 50.3671 94.4628C49.9039 92.5761 50.9393 90.6714 52.5695 90.1442C54.1997 89.6169 56.1987 90.816 56.662 92.7027C57.1252 94.5894 56.0897 96.4941 54.4595 97.0214Z" fill="#040000"/>
<path d="M52.2861 89.6628C54.331 89.1075 56.3301 90.3065 56.9821 92.514C57.5397 94.5612 56.4385 96.7205 54.488 97.4362C52.4431 97.9915 50.444 96.7924 49.792 94.5849C49.3946 92.4436 50.4958 90.2843 52.2861 89.6628ZM52.5979 90.559C51.1278 90.992 50.1582 92.6421 50.6872 94.2742C51.2162 95.9063 52.7062 96.973 54.3364 96.4457C55.8064 96.0127 56.776 94.3627 56.247 92.7306C55.718 91.0985 54.0679 90.126 52.5979 90.559Z" fill="#192952"/>
<path d="M52.1745 91.6718C52.2031 92.0868 51.9772 92.4357 51.6569 92.6241C51.2422 92.6521 50.8933 92.4256 50.7046 92.1048C50.676 91.6897 50.9019 91.3409 51.2222 91.1524C51.6369 91.1244 52.1459 91.2567 52.1745 91.6718Z" fill="white"/>
<path d="M85.6795 88.154C84.0493 88.6812 82.0503 87.4822 81.5871 85.5955C81.1238 83.7088 82.1593 81.8041 83.7895 81.2768C85.4197 80.7496 87.4187 81.9486 87.8819 83.8353C88.4395 85.8825 87.4041 87.7871 85.6795 88.154Z" fill="#040000"/>
<path d="M83.6007 80.9559C85.6456 80.4006 87.6447 81.5997 88.2966 83.8072C88.8542 85.8543 87.753 88.0137 85.8024 88.7294C83.7575 89.2847 81.7585 88.0857 81.1065 85.8781C80.4546 83.6706 81.7159 81.417 83.6007 80.9559ZM83.9124 81.8522C82.4423 82.2852 81.4727 83.9353 82.0017 85.5674C82.5307 87.1995 84.0207 88.2662 85.6509 87.739C87.1209 87.3059 88.0906 85.6558 87.5616 84.0237C87.0326 82.3916 85.3824 81.4192 83.9124 81.8522Z" fill="#192952"/>
<path d="M83.4892 82.9652C83.5178 83.3802 83.2918 83.729 82.9715 83.9175C82.5568 83.9456 82.2079 83.719 82.0191 83.3982C81.9906 82.9832 82.2165 82.6343 82.5368 82.4459C82.9515 82.4178 83.4606 82.5501 83.4892 82.9652Z" fill="white"/>
<path d="M65.1227 75.2012L79.7574 71.1255L82.0256 66.5522C100.59 61.4601 102.947 101.747 102.947 101.747C102.947 101.747 110.973 94.8657 107.098 80.9509C103.318 67.1965 96.925 37.2737 57.5911 48.1075C18.3515 59.1016 28.4199 87.9418 32.2943 101.857C36.0744 115.611 46.6133 117.4 46.6133 117.4C46.6133 117.4 27.7367 81.6501 46.3011 76.558L50.6481 79.1827L65.1227 75.2012Z" fill="#152347"/>
<path d="M51.0355 54.5553L16.8794 43.7733L55.6563 70.8381L59.5434 63.153L51.0355 54.5553Z" fill="#F4A729"/>
<path d="M66.4055 50.263L90.2135 23.3006L71.0263 66.5458L65.372 67.9291L66.4055 50.263Z" fill="#F4A729"/>
<path d="M59.5434 63.153L16.8794 43.7733L55.6563 70.8381L59.5434 63.153Z" fill="#F19424"/>
<path d="M58.0217 70.0942L90.2134 23.3006L71.0262 66.5458L58.0217 70.0942Z" fill="#F19424"/>
<path d="M58.4837 44.1276L65.9708 48.7915L69.1934 60.4987L65.1461 68.278L55.4963 70.9323L48.6738 46.8761L58.4837 44.1276ZM57.857 50.7581L56.2268 51.2854L59.5437 63.1531L61.1739 62.6258L62.8586 59.2595L60.9027 52.6369L57.857 50.7581Z" fill="#1D60AC"/>
<path d="M102.947 101.746C102.947 101.746 117.697 87.2387 120.057 79.1566C120.057 79.1566 121.195 76.3276 119.657 73.3461C119.657 73.3461 117.93 70.0438 120.286 70.3848C120.286 70.3848 121.879 70.5272 123.286 74.0179C123.286 74.0179 125.294 74.1323 127.499 73.4827C127.499 73.4827 137.337 71.1493 134.957 77.7316C134.957 77.7316 134.139 80.3721 128.005 82.0381C128.005 82.0381 121.677 103.898 109.527 116.229C109.273 116.163 103.161 110.905 102.947 101.746Z" fill="#1B55A3"/>
<path d="M127.405 73.3225C125.199 73.972 123.192 73.8577 123.192 73.8577C121.785 70.3669 120.192 70.2245 120.192 70.2245C117.675 69.9778 119.563 73.1859 119.563 73.1859C121.101 76.1674 119.963 78.9964 119.963 78.9964C119.239 81.7973 116.979 85.286 114.305 88.8026C115.872 92.1991 118.946 94.4929 122.313 96.1833C125.945 88.4321 127.91 81.8778 127.91 81.8778C134.045 80.2119 134.863 77.5713 134.863 77.5713C137.083 71.0832 127.405 73.3225 127.405 73.3225Z" fill="#152347"/>
<path d="M46.6133 117.4C46.6133 117.4 26.5337 112.587 20.2992 106.754C20.2992 106.754 17.9227 104.914 17.6941 101.593C17.6941 101.593 17.5313 98.0184 15.5436 99.4038C15.5436 99.4038 14.3566 100.318 14.8683 104.12C14.8683 104.12 13.1065 105.156 10.9015 105.806C10.9015 105.806 1.28035 108.875 6.66544 113.264C6.66544 113.264 8.78741 115.039 14.9221 113.373C14.9221 113.373 31.7294 128.747 48.5286 133.115C48.6888 133.021 51.0773 125.354 46.6133 117.4Z" fill="#1B55A3"/>
<path d="M10.9959 105.966C13.201 105.317 14.9628 104.28 14.9628 104.28C14.451 100.479 15.638 99.5643 15.638 99.5643C17.6257 98.1789 17.7886 101.754 17.7886 101.754C18.0172 105.074 20.3937 106.915 20.3937 106.915C22.4499 108.944 26.3251 110.767 30.266 112.335C30.6834 115.976 29.093 119.502 27.1538 122.803C19.987 117.95 14.9222 113.373 14.9222 113.373C8.78746 115.039 6.6655 113.264 6.6655 113.264C1.37478 109.035 10.9959 105.966 10.9959 105.966Z" fill="#152347"/>
<path d="M54.7585 171.555L53.0452 174.506L47.7857 174.362L57.0088 181.243C57.0088 181.243 58.8078 179.537 61.9825 177.237L54.7585 171.555Z" fill="#152347"/>
<path d="M70.9817 96.1536C67.0521 97.17 63.6029 97.9037 61.1805 97.8174C65.2437 112.053 73.9696 109.294 74.6103 108.918C75.3453 108.701 84.2886 106.678 80.2254 92.4427C78.1432 93.6677 74.817 94.9768 70.9817 96.1536Z" fill="#060A1D"/>
</svg>
