<svg width="288" height="356" viewBox="0 0 288 356" fill="none" xmlns="http://www.w3.org/2000/svg">
<path d="M283.74 191.816C285.948 194.499 285.544 198.361 283.008 200.814C280.33 203.021 276.47 202.611 274.015 200.07C271.807 197.387 272.212 193.525 274.747 191.072C277.425 188.865 281.532 189.133 283.74 191.816Z" fill="#C3215F"/>
<path d="M214.238 247.125C218.225 251.749 217.624 258.693 212.866 262.43C208.251 266.415 201.311 265.804 197.57 261.038C193.583 256.414 194.184 249.47 198.942 245.732C203.31 241.89 210.25 242.501 214.238 247.125Z" fill="#C3215F"/>
<path d="M249.037 112.901C244.386 109.98 241.229 108.504 241.229 108.504C240.982 108.647 240.982 108.647 240.735 108.79C240.735 108.79 240.735 108.79 240.488 108.932C239.643 109.75 238.979 111.453 240.538 111.872C239.562 114.744 239.327 117.189 240.782 117.998C242.238 118.807 244.603 117.77 246.892 115.459C244.824 119.292 244.562 123.402 246.55 124.563C248.005 125.372 250.267 124.725 252.698 122.662C250.772 126.742 250.615 130.462 252.746 131.87C254.733 133.031 257.983 131.814 260.974 128.438C271.729 141.358 277.297 157.274 276.86 175.338C276.018 197.265 260.818 214.289 243.502 225.937C233.803 232.527 223.626 235.436 213.175 240.152C177.376 256.867 206.12 265.006 206.12 265.006C291.151 242.291 287.073 179.336 287.073 179.336C289.363 143.379 262.601 121.561 249.037 112.901Z" fill="#C3215F"/>
<path d="M249.037 112.901C244.386 109.98 241.229 108.504 241.229 108.504C240.982 108.647 240.982 108.647 240.735 108.79C240.735 108.79 240.735 108.79 240.488 108.932L240.241 109.075C274.243 128.032 294.536 171.727 273.063 207.547C256.259 236.052 226.686 252.141 195.791 259.097C198.466 263.159 205.873 265.149 205.873 265.149C290.904 242.434 286.826 179.478 286.826 179.478C289.363 143.379 262.601 121.561 249.037 112.901Z" fill="#A91853"/>
<g opacity="0.12">
<g opacity="0.12">
<path opacity="0.12" d="M249.037 112.901C244.386 109.98 241.229 108.504 241.229 108.504C240.982 108.647 240.982 108.647 240.735 108.79C240.735 108.79 240.735 108.79 240.488 108.932C239.643 109.75 238.979 111.453 240.538 111.872C239.562 114.744 239.327 117.189 240.782 117.998C242.238 118.807 244.603 117.77 246.892 115.459C244.824 119.292 244.562 123.402 246.55 124.563C248.005 125.372 250.267 124.725 252.698 122.662C250.772 126.742 250.615 130.462 252.746 131.87C254.733 133.031 257.983 131.814 260.974 128.438C271.729 141.358 277.297 157.274 276.86 175.338C276.018 197.265 260.818 214.289 243.502 225.937C233.803 232.527 223.626 235.436 213.175 240.152C177.376 256.867 206.12 265.006 206.12 265.006C291.151 242.291 287.073 179.336 287.073 179.336C289.363 143.379 262.601 121.561 249.037 112.901Z" fill="#040000"/>
</g>
</g>
<g opacity="0.12">
<g opacity="0.12">
<path opacity="0.12" d="M249.037 112.901C244.386 109.98 241.229 108.504 241.229 108.504C240.982 108.647 240.982 108.647 240.735 108.79C240.735 108.79 240.735 108.79 240.488 108.932L240.241 109.075C274.243 128.032 294.536 171.727 273.063 207.547C256.259 236.052 226.686 252.141 195.791 259.097C198.466 263.159 205.873 265.149 205.873 265.149C290.904 242.434 286.826 179.478 286.826 179.478C289.363 143.379 262.601 121.561 249.037 112.901Z" fill="#040000"/>
</g>
</g>
<path d="M104.033 213.13C104.033 213.13 114.066 270.997 166.884 294.591C166.884 294.591 174.452 313.97 194.494 309.323L196.714 314.308L202.243 302.209C202.243 302.209 176.984 290.408 212.997 260.376C212.997 260.376 226.531 249.591 223.064 270.395L235.605 272.719L231.617 268.094C231.617 268.094 255.952 224.685 227.828 226.743C227.828 226.743 178.842 177.846 168.59 173.211L104.033 213.13Z" fill="#C3215F"/>
<path d="M238.079 176.623C238.079 176.623 199.304 192.748 189.582 194.734C179.86 196.719 168.894 190.848 172.575 184.104C178.571 173.385 238.436 163.553 238.578 163.8L251.017 160.245L258.022 159.829C258.269 159.686 258.555 160.181 258.698 160.428C258.841 160.675 258.737 161.065 258.49 161.208L252.874 163.461L259.138 163.472C259.528 163.577 259.671 163.824 259.814 164.072C259.957 164.319 259.853 164.709 259.606 164.852L253.639 167.637L260.293 167.753C260.683 167.858 260.826 168.105 260.969 168.352C261.111 168.6 260.865 168.742 260.618 168.885L253.767 171.851L260.213 172.747C260.603 172.852 260.746 173.099 260.888 173.347C260.784 173.737 260.537 173.879 260.29 174.022L249.295 176.083L253.27 178.406C253.66 178.51 253.556 178.9 253.699 179.148C253.595 179.538 253.348 179.68 252.958 179.575L246.837 179.812C246.837 179.812 246.59 179.955 246.447 179.707L240.275 177.004L238.079 176.623Z" fill="#C3215F"/>
<g opacity="0.12">
<g opacity="0.12">
<path opacity="0.12" d="M216.065 258.274C221.493 240.296 167.415 185.435 159.451 178.489L115.85 205.647C120.82 222.238 140.03 275.465 194.089 285.808C195.366 279.463 200.347 270.979 213.244 260.233C212.997 260.376 214.336 259.272 216.065 258.274Z" fill="#040000"/>
</g>
</g>
<path d="M22.8653 229.987L19.5263 227.627C19.3835 227.38 19.2406 227.133 19.3448 226.743C19.4489 226.353 19.8388 226.457 20.0858 226.315L25.6089 226.754C25.6089 226.754 25.7518 227.001 25.9988 226.858L31.1173 231.159L33.1706 231.293C33.1706 231.293 103.433 220.075 113.309 220.638C123.29 220.812 125.859 231.533 120.58 237.22C111.92 246.179 29.5909 243.915 29.5909 243.915L19.8957 244.236L18.4075 230.253L22.8653 229.987Z" fill="#C3215F"/>
<g opacity="0.24">
<g opacity="0.24">
<path opacity="0.24" d="M26.2665 237.588L21.2761 237.501L26.4361 236.171C28.0222 234.925 26.4629 234.506 26.4629 234.506L21.0826 234.315L25.9957 233.127C26.6979 232.061 25.2428 231.253 25.2428 231.253L19.0828 230.852C18.8358 230.994 18.5888 231.137 18.3418 231.28L19.8954 244.236C20.0383 244.483 20.0383 244.483 20.4281 244.588L21.7018 244.512L26.4333 242.44C27.3825 241.232 25.7191 241.203 25.7191 241.203L21.2613 241.468L26.4868 239.11C27.436 237.902 26.2665 237.588 26.2665 237.588Z" fill="#040000"/>
</g>
</g>
<path d="M20.2853 244.341C20.2853 244.341 17.9076 243.075 19.208 241.335C19.208 241.335 16.5833 240.212 18.092 237.691C18.092 237.691 15.1429 235.436 17.8598 233.867C17.8598 233.867 15.7945 231.431 18.5501 230.5L24.7101 230.901C24.7101 230.901 26.1653 231.71 25.463 232.775L20.5499 233.963L25.9302 234.154C25.9302 234.154 27.4896 234.573 25.9035 235.819L20.7434 237.15L25.7339 237.236C25.7339 237.236 26.9034 237.55 26.344 238.863L20.9756 240.974L25.4334 240.708C25.4334 240.708 26.9927 241.127 26.1476 241.945L20.2853 244.341Z" fill="#C3215F"/>
<path d="M193.649 112.232C221.777 158.66 207.155 218.89 160.798 246.979C114.441 275.069 54.2369 260.358 26.1085 213.931C-2.01993 167.503 12.6021 107.273 58.959 79.1832C105.459 51.3411 165.663 66.0517 193.649 112.232Z" fill="#7E1C40"/>
<path d="M14.9656 139.883L110.073 163.134L59.1019 79.4308C35.9234 93.4756 20.89 115.351 14.9656 139.883Z" fill="#8F1C79"/>
<path d="M14.9657 139.882L110.073 163.134L26.4984 214.035C12.4342 190.821 8.8984 164.166 14.9657 139.882Z" fill="#212C8C"/>
<path d="M133.185 67.9847L110.073 163.134L59.1017 79.4304C82.2801 65.3857 108.911 61.8816 133.185 67.9847Z" fill="#EB662C"/>
<path d="M133.185 67.985L110.074 163.134L193.649 112.232C179.727 89.2657 157.706 73.9455 133.185 67.985Z" fill="#F4BA1F"/>
<path d="M205.181 186.385L110.074 163.134L161.045 246.837C183.977 232.935 199.257 210.917 205.181 186.385Z" fill="#40B04B"/>
<path d="M205.181 186.385L110.073 163.134L193.649 112.232C207.713 135.446 211.249 162.101 205.181 186.385Z" fill="#E0E034"/>
<path d="M86.9619 258.283L110.073 163.134L161.045 246.837C137.866 260.882 111.236 264.386 86.9619 258.283Z" fill="#30B1B0"/>
<path d="M86.9621 258.283L110.073 163.134L26.4984 214.035C40.5626 237.249 62.4411 252.322 86.9621 258.283Z" fill="#2C55A4"/>
<path d="M94.1522 136.704L22.3958 119.099C15.7748 132.158 12.3112 146.693 12.1746 161.285L83.9311 178.89L110.32 162.991L94.1522 136.704Z" fill="#542388"/>
<path d="M94.1521 136.704L111.652 64.9167C126.233 65.0723 140.904 68.8045 153.819 75.1999L136.32 146.987L110.073 163.133L94.1521 136.704Z" fill="#EE7B24"/>
<path d="M125.995 189.563L197.751 207.169C204.372 194.109 207.836 179.575 207.972 164.983L136.216 147.378L110.074 163.134L125.995 189.563Z" fill="#A3CB3C"/>
<path d="M125.994 189.563L108.495 261.35C93.9135 261.195 79.2426 257.462 66.3274 251.067L83.8268 179.28L110.216 163.381L125.994 189.563Z" fill="#2D81AF"/>
<path d="M160.519 145.547C164.766 152.33 148.083 170.21 123.176 185.253C98.2687 200.296 74.7688 206.94 70.7691 200.014C66.5225 193.231 83.2046 175.351 108.112 160.308C133.019 145.265 156.272 138.763 160.519 145.547Z" fill="#430806"/>
<path d="M143.992 165.976C147.524 171.523 139.761 182.603 126.813 190.41C113.865 198.217 100.426 200.04 97.141 194.351C93.6086 188.804 101.372 177.724 114.32 169.917C127.125 161.863 140.317 160.182 143.992 165.976Z" fill="#BF5C5D"/>
<path d="M85.5023 181.611C85.5023 181.611 91.347 189.451 95.0518 187.311C98.7567 185.172 94.2898 176.866 94.2898 176.866C94.2898 176.866 87.5465 173.174 85.5023 181.611Z" fill="white"/>
<path d="M94.9655 177.466C94.9655 177.466 100.81 185.306 104.515 183.166C108.22 181.027 103.753 172.721 103.753 172.721C103.753 172.721 96.8669 168.781 94.9655 177.466Z" fill="white"/>
<path d="M104 172.578C104 172.578 109.845 180.418 113.549 178.278C117.254 176.139 112.787 167.833 112.787 167.833C112.787 167.833 105.901 163.894 104 172.578Z" fill="white"/>
<path d="M137.644 149.851C137.644 149.851 141.76 158.689 138.302 160.686C134.597 162.825 129.285 155.338 129.285 155.338C129.285 155.338 129.21 147.794 137.644 149.851Z" fill="white"/>
<path d="M129.467 156.222C129.467 156.222 133.582 165.061 130.124 167.057C126.42 169.197 121.108 161.709 121.108 161.709C121.108 161.709 121.033 154.166 129.467 156.222Z" fill="white"/>
<path d="M121.004 162.099C121.004 162.099 125.119 170.938 121.661 172.934C117.957 175.074 112.645 167.586 112.645 167.586C112.645 167.586 112.57 160.043 121.004 162.099Z" fill="white"/>
<path d="M132.577 175.867C132.577 175.867 128.836 171.1 126.613 172.384C124.39 173.668 127.143 179.005 127.143 179.005C127.143 179.005 131.223 180.937 132.577 175.867Z" fill="white"/>
<path d="M127.429 179.499C127.429 179.499 123.688 174.733 121.465 176.016C119.242 177.3 121.995 182.637 121.995 182.637C121.995 182.637 125.971 184.959 127.429 179.499Z" fill="white"/>
<path d="M111.127 188.913C111.127 188.913 108.622 183.433 110.845 182.15C113.067 180.866 116.418 185.528 116.418 185.528C116.418 185.528 116.195 190.275 111.127 188.913Z" fill="white"/>
<path d="M116.704 186.022C116.704 186.022 114.198 180.542 116.421 179.259C118.644 177.975 121.995 182.637 121.995 182.637C121.995 182.637 122.019 187.241 116.704 186.022Z" fill="white"/>
<path d="M162.932 126.342C153.671 114.867 136.557 110.897 117.958 114.051L82.2305 117.201L62.8525 147.522C60.2517 151.003 58.1449 154.199 56.3237 157.889C50.158 170.026 48.4889 182.535 53.2147 192.999C63.4579 216.441 99.5072 220.692 132.916 200.409C166.079 180.269 178.96 146.112 162.932 126.342ZM146.828 160.05C141.314 168.182 120.709 180.411 120.709 180.411C120.709 180.411 100.248 192.887 90.4869 194.235C80.7262 195.584 78.8454 187.764 84.1096 186.043C89.3738 184.323 113.891 169.175 113.891 169.175C113.891 169.175 138.799 154.132 142.53 150.328C146.405 146.771 152.484 152.166 146.828 160.05Z" fill="#B0275D"/>
<path d="M84.0738 179.137C81.1099 180.849 77.3544 180.049 75.7831 177.328C74.2118 174.607 75.0063 170.85 77.9702 169.138C80.9341 167.427 84.6896 168.226 86.2609 170.947C88.0791 173.526 87.0377 177.426 84.0738 179.137Z" fill="#220611"/>
<path d="M78.2558 169.633C80.9726 168.064 84.3383 168.759 85.7668 171.233C87.1952 173.706 86.5049 177.074 83.788 178.643C81.0711 180.212 77.7054 179.516 76.277 177.043C74.8485 174.569 75.5389 171.202 78.2558 169.633ZM77.6844 168.644C74.4735 170.498 73.3279 174.788 75.289 177.613C77.0032 180.582 81.1485 181.486 84.3594 179.632C87.5703 177.778 88.7159 173.488 86.7547 170.662C84.8978 167.447 80.8953 166.789 77.6844 168.644Z" fill="#480C24"/>
<path d="M77.5269 172.363C77.8126 172.858 77.6043 173.638 77.1103 173.923C76.6163 174.208 75.8366 173.999 75.5509 173.504C75.2653 173.009 75.4735 172.229 75.9675 171.944C76.4615 171.659 77.0983 171.621 77.5269 172.363Z" fill="white"/>
<path d="M136.216 147.378C133.252 149.089 129.496 148.289 127.925 145.568C126.354 142.847 127.148 139.09 130.112 137.379C133.076 135.667 136.832 136.467 138.403 139.188C139.974 141.909 139.18 145.666 136.216 147.378Z" fill="#220611"/>
<path d="M130.398 137.873C133.114 136.304 136.48 136.999 137.909 139.473C139.337 141.946 138.647 145.313 135.93 146.882C133.213 148.451 129.847 147.756 128.419 145.283C126.743 142.952 127.681 139.442 130.398 137.873ZM129.826 136.883C126.615 138.738 125.47 143.027 127.431 145.853C129.145 148.821 133.29 149.726 136.501 147.872C139.712 146.018 140.858 141.728 138.896 138.902C137.182 135.934 133.037 135.029 129.826 136.883Z" fill="#480C24"/>
<path d="M129.669 140.603C129.954 141.098 129.746 141.877 129.252 142.163C128.758 142.448 127.978 142.239 127.693 141.744C127.407 141.249 127.615 140.469 128.109 140.184C128.603 139.899 129.383 140.108 129.669 140.603Z" fill="white"/>
<path d="M127.15 105.444C127.15 105.444 129.314 120.027 140.682 128.306C140.682 128.306 142.101 122.208 141.92 121.324C141.92 121.324 147.651 120.982 150.121 119.556C150.368 119.413 142.589 107.083 127.15 105.444Z" fill="#EF861A"/>
<path d="M127.15 105.444C127.15 105.444 135.045 92.309 149.651 97.0686C149.651 97.0686 154.037 110.368 145.976 118.652C145.833 118.404 129.171 119.78 127.15 105.444Z" fill="#F4A717"/>
<path d="M127.255 105.054C127.255 105.054 139.446 101.642 138.845 108.586C138.845 108.586 138.221 110.926 134.894 110.868C134.894 110.868 138.235 106.959 127.255 105.054Z" fill="#EF861A"/>
<path d="M127.54 105.549C127.54 105.549 125.74 120.112 114.495 128.585C114.495 128.585 112.834 122.288 112.938 121.898C112.938 121.898 107.168 121.601 104.79 120.336C104.648 120.088 112.191 107.486 127.54 105.549Z" fill="#EF861A"/>
<path d="M127.644 105.159C127.644 105.159 119.19 92.2294 104.957 97.81C104.957 97.81 101.169 111.212 109.314 119.043C109.314 119.043 126.234 119.827 127.644 105.159Z" fill="#F4A717"/>
<path d="M127.255 105.054C127.255 105.054 115.066 102.198 115.985 108.923C115.985 108.923 116.634 111.187 119.961 111.245C120.208 111.103 116.649 107.221 127.255 105.054Z" fill="#EF861A"/>
<path d="M121.901 103.198C121.901 103.198 124.008 100.002 127.073 104.169C130.025 100.156 132.376 103.086 132.376 103.086C135.155 106.759 127.29 111.96 127.29 111.96C127.29 111.96 119.196 107.069 121.901 103.198Z" fill="#B0275D"/>
<g opacity="0.24">
<g opacity="0.24">
<path opacity="0.24" d="M122.862 104.292C122.901 104.929 123.434 105.281 123.681 105.139C124.317 105.101 124.669 104.568 124.526 104.321C124.487 103.683 123.954 103.331 123.707 103.474C123.317 103.369 122.823 103.654 122.862 104.292Z" fill="white"/>
</g>
</g>
</svg>
