<svg width="230" height="231" viewBox="0 0 230 231" fill="none" xmlns="http://www.w3.org/2000/svg">
<mask id="mask0_28_406" style="mask-type:alpha" maskUnits="userSpaceOnUse" x="0" y="0" width="201" height="200">
<rect x="0.375" width="200" height="200" rx="19.6721" fill="#E7F8FF"/>
</mask>
<g mask="url(#mask0_28_406)">
<rect x="0.375" width="200" height="200" rx="19.6721" fill="#FFDCF5"/>
<path fill-rule="evenodd" clip-rule="evenodd" d="M60.1426 60.8188L46.6844 63.2391L37.5881 12.6583L67.4799 7.28259L69.4522 18.2498L53.0186 21.2052L54.7545 30.8578L69.908 28.1326L71.8803 39.0999L56.7269 41.825L60.1426 60.8188ZM95.2353 35.5069L98.5453 53.9125L84.8795 56.3702L75.7832 5.78935L92.3551 2.80908C106.102 0.336933 113.871 4.08283 115.663 14.0468C116.716 19.9052 114.671 24.9517 109.528 29.1864L128.23 48.5742L112.73 51.3616L98.695 34.8848L95.2353 35.5069ZM93.3874 25.2316L95.9476 24.7712C100.722 23.9126 102.73 21.3729 101.971 17.152C101.344 13.6693 98.69 12.3489 94.0079 13.1909L91.3093 13.6762L93.3874 25.2316ZM162.861 42.3461L132.831 47.7467L123.735 -2.83414L153.765 -8.2347L155.737 2.73255L139.373 5.67549L140.804 13.6328L155.957 10.9076L157.93 21.8749L142.776 24.6001L144.493 34.1488L160.858 31.2059L162.861 42.3461ZM201.748 35.3528L171.718 40.7533L162.622 -9.82749L192.652 -15.2281L194.624 -4.26081L178.26 -1.31787L179.691 6.63944L194.844 3.91427L196.817 14.8815L181.663 17.6067L183.38 27.1555L199.745 24.2125L201.748 35.3528ZM217.947 14.0103L206.53 16.0635L198.879 -16.348L213.825 -19.0358L217.947 14.0103ZM207.081 28.4649C206.704 26.366 207.034 24.6279 208.072 23.2507C209.106 21.8504 210.811 20.9366 213.187 20.5094C215.539 20.0863 217.421 20.3551 218.832 21.3157C220.262 22.2491 221.165 23.7652 221.543 25.8641C221.916 27.9399 221.574 29.6801 220.517 31.0845C219.479 32.4617 217.83 33.3536 215.57 33.7601C213.286 34.1707 211.395 33.9156 209.896 32.9946C208.393 32.0506 207.455 30.5407 207.081 28.4649ZM32.2738 127.212L18.8156 129.633L9.71925 79.0518L39.6111 73.6761L41.5834 84.6433L25.1498 87.5987L26.8857 97.2513L42.0392 94.5261L44.0115 105.493L28.858 108.219L32.2738 127.212ZM67.3665 101.9L70.6765 120.306L57.0107 122.764L47.9143 72.1828L64.4863 69.2026C78.2329 66.7304 86.0021 70.4763 87.794 80.4403C88.8475 86.2987 86.8026 91.3452 81.6591 95.5799L100.361 114.968L84.8613 117.755L70.8262 101.278L67.3665 101.9ZM65.5186 91.6251L68.0788 91.1647C72.8532 90.3061 74.8608 87.7663 74.1018 83.5455C73.4754 80.0628 70.8212 78.7424 66.1391 79.5844L63.4405 80.0697L65.5186 91.6251ZM134.992 108.74L104.962 114.14L95.8658 63.5593L125.896 58.1588L127.868 69.126L111.504 72.069L112.935 80.0263L128.088 77.3011L130.061 88.2684L114.907 90.9935L116.625 100.542L132.989 97.5994L134.992 108.74ZM173.879 101.746L143.849 107.147L134.753 56.566L164.783 51.1654L166.755 62.1327L150.391 65.0756L151.822 73.0329L166.976 70.3078L168.948 81.275L153.794 84.0002L155.512 93.549L171.876 90.606L173.879 101.746ZM190.078 80.4037L178.661 82.457L171.011 50.0455L185.956 47.3577L190.078 80.4037ZM179.212 94.8583C178.835 92.7594 179.165 91.0214 180.203 89.6442C181.237 88.2439 182.942 87.3301 185.318 86.9029C187.67 86.4798 189.552 86.7486 190.963 87.7092C192.393 88.6426 193.297 90.1587 193.674 92.2576C194.047 94.3334 193.705 96.0735 192.648 97.478C191.61 98.8552 189.961 99.7471 187.701 100.154C185.417 100.564 183.526 100.309 182.027 99.3881C180.524 98.4441 179.586 96.9342 179.212 94.8583ZM-4.9549 199.305L8.50334 196.884L5.08755 177.891L20.241 175.165L18.2687 164.198L3.11522 166.923L1.37932 157.271L17.8129 154.315L15.8406 143.348L-14.0512 148.724L-4.9549 199.305ZM46.906 189.978L43.596 171.573L47.0557 170.95L61.0908 187.427L76.5903 184.64L57.8886 165.252C63.0321 161.017 65.0771 155.971 64.0235 150.112C62.2316 140.148 54.4624 136.403 40.7158 138.875L24.1439 141.855L33.2402 192.436L46.906 189.978ZM44.3083 160.837L41.7481 161.297L39.67 149.742L42.3686 149.257C47.0507 148.414 49.7049 149.735 50.3313 153.218C51.0903 157.438 49.0827 159.978 44.3083 160.837ZM81.1917 183.812L111.222 178.412L109.218 167.271L92.854 170.214L91.1368 160.666L106.29 157.94L104.318 146.973L89.1645 149.698L87.7335 141.741L104.098 138.798L102.126 127.831L72.0953 133.231L81.1917 183.812ZM120.079 176.819L150.109 171.418L148.105 160.278L131.741 163.221L130.024 153.672L145.177 150.947L143.205 139.98L128.052 142.705L126.621 134.748L142.985 131.805L141.013 120.838L110.982 126.238L120.079 176.819ZM154.89 152.129L166.307 150.076L162.186 117.03L147.24 119.718L154.89 152.129ZM156.433 159.316C155.395 160.694 155.064 162.432 155.442 164.53C155.815 166.606 156.753 168.116 158.257 169.06C159.756 169.981 161.647 170.236 163.93 169.826C166.191 169.419 167.84 168.527 168.878 167.15C169.935 165.746 170.277 164.006 169.903 161.93C169.526 159.831 168.622 158.315 167.193 157.381C165.782 156.421 163.9 156.152 161.547 156.575C159.172 157.002 157.467 157.916 156.433 159.316Z" fill="url(#paint0_linear_28_406)"/>
</g>
<path d="M222.236 196.957L225.434 194.909L222.372 202.379C222.372 202.379 209.285 199.433 196.317 204.213L211.551 190.601L222.236 196.957Z" fill="#1B55A3"/>
<path d="M220.161 195.741L222.236 196.957L225.434 194.909L222.372 202.379C222.372 202.379 220.649 202.024 217.94 201.796L220.161 195.741Z" fill="#152347"/>
<path d="M170.352 211.65L166.655 211.548L173.138 216.419C173.138 216.419 182.804 207.023 196.383 204.327L176.333 200.616L170.352 211.65Z" fill="#1B55A3"/>
<path d="M205.362 160.028C205.362 160.028 226.144 195.864 196.317 204.213C166.49 212.563 165.765 171.11 165.765 171.11L205.362 160.028Z" fill="#1B55A3"/>
<path d="M201.389 163.605L171.046 172.108C172.131 179.413 174.868 190.326 180.497 195.551C184.123 198.905 188.755 199.829 194.729 198.123C200.591 196.484 204.18 193.288 205.495 188.534C207.596 180.716 203.984 169.864 201.389 163.605Z" fill="#1D60AC"/>
<path d="M216.78 192.547L212.955 188.852C212.935 188.558 213.027 188.198 213.073 188.018C213.164 185.06 212.44 183.043 212.44 183.043C212.44 183.043 209.819 185.819 192.524 190.717C175.23 195.614 171.585 194.564 171.585 194.564C171.585 194.564 172.083 196.714 173.655 199.146C173.788 199.373 173.921 199.6 174.166 199.76L172.825 204.988L190.35 207.749C190.35 207.749 194.132 205.661 196.49 205.028C198.848 204.395 203.108 204.164 203.108 204.164L216.78 192.547Z" fill="#F4A729"/>
<path d="M196.697 133.521C196.697 133.521 197.958 127.119 193.24 125.787C188.521 124.456 187.452 129.369 187.452 129.369C183.715 128.679 179.813 129.004 175.792 130.164C171.771 131.323 168.261 133.097 165.441 135.533C165.441 135.533 161.907 131.818 158.584 135.469C155.261 139.119 159.683 143.836 159.683 143.836C157.851 148.743 157.578 155.019 159.65 162.199C164.552 179.93 187.475 171.697 187.475 171.697C187.475 171.697 211.269 166.769 206.434 149.152C204.183 141.926 200.727 136.789 196.697 133.521Z" fill="#1D60AC"/>
<path d="M180.867 148.71C180.867 148.71 190.213 145.77 192.804 155.394C195.833 166.286 186.314 168.411 186.314 168.411C186.314 168.411 177.101 171.577 174.072 160.685C171.415 150.948 180.867 148.71 180.867 148.71Z" fill="#5393CE"/>
<path d="M182.748 157.378L181.811 153.959C181.725 153.551 181.884 153.304 182.222 153.104C182.513 153.084 182.871 153.178 182.957 153.585L183.894 157.005C183.98 157.412 183.821 157.659 183.484 157.859C183.08 157.946 182.768 157.672 182.748 157.378Z" fill="#060A1D"/>
<path d="M184.765 151.75C185.07 152.792 183.918 153.933 182.368 154.393C180.818 154.853 179.321 154.364 179.015 153.323C178.71 152.281 179.862 151.14 181.412 150.68C183.028 150.334 184.459 150.708 184.765 151.75Z" fill="#060A1D"/>
<path d="M171.28 156.683C170.067 156.943 168.729 156.208 168.403 154.872C168.077 153.537 168.805 152.188 169.951 151.815C171.097 151.442 172.502 152.291 172.828 153.626C173.153 154.962 172.425 156.31 171.28 156.683Z" fill="#040000"/>
<path d="M169.752 151.474C171.189 151.081 172.594 151.93 173.053 153.493C173.445 154.942 172.671 156.471 171.3 156.977C169.862 157.37 168.457 156.521 167.999 154.959C167.719 153.443 168.493 151.914 169.752 151.474ZM169.971 152.109C168.938 152.415 168.256 153.583 168.628 154.739C169 155.894 170.047 156.649 171.193 156.276C172.226 155.969 172.908 154.801 172.536 153.646C172.164 152.491 171.004 151.802 169.971 152.109Z" fill="#192952"/>
<path d="M169.673 152.896C169.694 153.19 169.535 153.437 169.31 153.571C169.018 153.59 168.773 153.43 168.64 153.203C168.62 152.909 168.779 152.662 169.004 152.529C169.295 152.509 169.653 152.603 169.673 152.896Z" fill="white"/>
<path d="M193.224 150.406C192.078 150.779 190.673 149.93 190.347 148.595C190.022 147.259 190.75 145.911 191.896 145.538C193.041 145.164 194.446 146.013 194.772 147.349C195.164 148.798 194.436 150.146 193.224 150.406Z" fill="#040000"/>
<path d="M191.763 145.31C193.2 144.917 194.605 145.766 195.064 147.329C195.456 148.778 194.682 150.307 193.311 150.813C191.873 151.207 190.468 150.358 190.01 148.795C189.552 147.232 190.438 145.637 191.763 145.31ZM191.982 145.945C190.949 146.251 190.267 147.42 190.639 148.575C191.011 149.73 192.058 150.486 193.204 150.112C194.237 149.806 194.919 148.638 194.547 147.482C194.175 146.327 193.015 145.638 191.982 145.945Z" fill="#192952"/>
<path d="M191.685 146.733C191.705 147.027 191.546 147.274 191.321 147.407C191.029 147.427 190.784 147.266 190.651 147.039C190.631 146.746 190.79 146.499 191.015 146.365C191.307 146.345 191.665 146.439 191.685 146.733Z" fill="white"/>
<path d="M178.775 141.237L189.061 138.351L190.656 135.114C203.705 131.509 205.362 160.029 205.362 160.029C205.362 160.029 211.003 155.157 208.279 145.307C205.622 135.57 201.129 114.387 173.481 122.056C145.899 129.839 152.976 150.256 155.7 160.106C158.357 169.844 165.765 171.11 165.765 171.11C165.765 171.11 152.496 145.802 165.545 142.197L168.601 144.055L178.775 141.237Z" fill="#152347"/>
<path d="M168.873 126.621L144.865 118.988L172.121 138.148L174.853 132.707L168.873 126.621Z" fill="#F4A729"/>
<path d="M179.677 123.582L196.411 104.495L182.924 135.109L178.95 136.088L179.677 123.582Z" fill="#F4A729"/>
<path d="M174.853 132.707L144.865 118.988L172.121 138.148L174.853 132.707Z" fill="#F19424"/>
<path d="M173.783 137.621L196.411 104.495L182.924 135.109L173.783 137.621Z" fill="#F19424"/>
<path d="M174.108 119.239L179.371 122.541L181.636 130.828L178.791 136.335L172.008 138.215L167.213 121.185L174.108 119.239ZM173.668 123.933L172.522 124.306L174.853 132.707L175.999 132.334L177.183 129.951L175.809 125.263L173.668 123.933Z" fill="#1D60AC"/>
<path d="M205.362 160.028C205.362 160.028 215.729 149.758 217.388 144.037C217.388 144.037 218.188 142.034 217.107 139.923C217.107 139.923 215.893 137.586 217.549 137.827C217.549 137.827 218.669 137.928 219.658 140.399C219.658 140.399 221.069 140.48 222.619 140.02C222.619 140.02 229.534 138.368 227.861 143.028C227.861 143.028 227.286 144.897 222.974 146.077C222.974 146.077 218.527 161.552 209.987 170.281C209.808 170.234 205.512 166.512 205.362 160.028Z" fill="#1B55A3"/>
<path d="M222.553 139.907C221.003 140.366 219.591 140.285 219.591 140.285C218.602 137.814 217.483 137.713 217.483 137.713C215.714 137.539 217.04 139.81 217.04 139.81C218.122 141.921 217.322 143.923 217.322 143.923C216.813 145.906 215.225 148.376 213.345 150.865C214.446 153.27 216.607 154.894 218.973 156.09C221.527 150.603 222.908 145.963 222.908 145.963C227.22 144.784 227.795 142.914 227.795 142.914C229.355 138.321 222.553 139.907 222.553 139.907Z" fill="#152347"/>
<path d="M165.764 171.11C165.764 171.11 151.651 167.703 147.268 163.574C147.268 163.574 145.598 162.271 145.437 159.92C145.437 159.92 145.323 157.389 143.926 158.37C143.926 158.37 143.091 159.017 143.451 161.708C143.451 161.708 142.213 162.442 140.663 162.902C140.663 162.902 133.9 165.075 137.685 168.182C137.685 168.182 139.177 169.438 143.489 168.259C143.489 168.259 155.303 179.143 167.111 182.235C167.223 182.168 168.902 176.74 165.764 171.11Z" fill="#1B55A3"/>
<path d="M140.729 163.016C142.279 162.556 143.517 161.822 143.517 161.822C143.158 159.131 143.992 158.484 143.992 158.484C145.389 157.503 145.504 160.034 145.504 160.034C145.664 162.384 147.335 163.687 147.335 163.687C148.78 165.124 151.504 166.414 154.274 167.524C154.567 170.102 153.449 172.598 152.086 174.935C147.049 171.5 143.489 168.259 143.489 168.259C139.177 169.438 137.685 168.182 137.685 168.182C133.966 165.189 140.729 163.016 140.729 163.016Z" fill="#152347"/>
<path d="M171.49 209.447L170.285 211.537L166.589 211.434L173.071 216.306C173.071 216.306 174.336 215.098 176.567 213.47L171.49 209.447Z" fill="#152347"/>
<path d="M182.893 156.069C180.131 156.789 177.706 157.308 176.004 157.247C178.86 167.325 184.993 165.372 185.444 165.105C185.96 164.952 192.246 163.52 189.39 153.442C187.927 154.309 185.589 155.236 182.893 156.069Z" fill="#060A1D"/>
<defs>
<linearGradient id="paint0_linear_28_406" x1="30.15" y1="-59.9747" x2="207.873" y2="241.563" gradientUnits="userSpaceOnUse">
<stop stop-color="#FFC960"/>
<stop offset="1" stop-color="#FF1F1F"/>
</linearGradient>
</defs>
</svg>
