<svg width="225" height="208" viewBox="0 0 225 208" fill="none" xmlns="http://www.w3.org/2000/svg">
<mask id="mask0_28_446" style="mask-type:alpha" maskUnits="userSpaceOnUse" x="21" y="0" width="201" height="200">
<rect x="21.625" width="200" height="200" rx="19.6721" fill="#E7F8FF"/>
</mask>
<g mask="url(#mask0_28_446)">
<rect x="21.625" width="200" height="200" rx="19.6721" fill="#E7F8FF"/>
</g>
<path d="M0.72344 31.3575C0.72344 16.3027 12.9278 4.09839 27.9826 4.09839C43.0374 4.09839 55.2417 16.3027 55.2417 31.3575C55.2417 46.4123 43.0374 58.6166 27.9826 58.6166C12.9278 58.6166 0.72344 46.4123 0.72344 31.3575Z" fill="url(#paint0_linear_28_446)"/>
<path d="M26.2878 46.2836V24.3651H21.0663V21.0258C23.5758 21.0258 25.3838 20.675 26.4902 19.9733C27.5966 19.2583 28.2172 18.2733 28.3522 17.0185H32.2785V46.2836H26.2878Z" fill="#FAFAFA"/>
<path d="M61.7991 31.3575C61.7991 16.3027 74.0034 4.09839 89.0582 4.09839C104.113 4.09839 116.317 16.3027 116.317 31.3575C116.317 46.4123 104.113 58.6166 89.0582 58.6166C74.0034 58.6166 61.7991 46.4123 61.7991 31.3575Z" fill="url(#paint1_linear_28_446)"/>
<path d="M78.4983 46.2836V41.8715C78.4983 40.3874 78.7749 39.1056 79.3281 38.0262C79.8813 36.9333 80.6099 35.9889 81.5139 35.1928C82.4313 34.3967 83.4298 33.6951 84.5092 33.088C85.6021 32.4673 86.6949 31.8939 87.7878 31.3677C88.8807 30.828 89.8792 30.2816 90.7831 29.7284C91.7006 29.1752 92.436 28.5613 92.9892 27.8867C93.5423 27.1985 93.8189 26.4025 93.8189 25.4985C93.8189 24.3247 93.4074 23.3667 92.5844 22.6246C91.7613 21.8825 90.6482 21.5115 89.245 21.5115C87.7743 21.5115 86.5195 21.9365 85.4806 22.7865C84.4552 23.6365 83.8278 24.9183 83.5984 26.6319H77.9519C77.9653 24.7699 78.3971 23.0834 79.2471 21.5722C80.0971 20.0476 81.3654 18.84 83.052 17.9495C84.7385 17.059 86.8568 16.6137 89.4069 16.6137C91.5927 16.6137 93.4749 16.9848 95.0535 17.7269C96.6456 18.4689 97.8734 19.5011 98.7369 20.8234C99.6004 22.1456 100.032 23.6905 100.032 25.458C100.032 26.9422 99.7624 28.2172 99.2227 29.2831C98.683 30.3355 97.9679 31.2463 97.0774 32.0153C96.1869 32.7709 95.2087 33.432 94.1428 33.9987C93.0769 34.5654 92.011 35.0916 90.9451 35.5773C89.8926 36.0496 88.9212 36.542 88.0307 37.0548C87.1402 37.554 86.4251 38.1207 85.8854 38.7548C85.3457 39.3889 85.0759 40.1513 85.0759 41.0418V41.3049H99.9917V46.2836H78.4983Z" fill="#FAFAFA"/>
<path d="M122.875 31.3575C122.875 16.3027 135.079 4.09839 150.134 4.09839C165.189 4.09839 177.393 16.3027 177.393 31.3575C177.393 46.4123 165.189 58.6166 150.134 58.6166C135.079 58.6166 122.875 46.4123 122.875 31.3575Z" fill="url(#paint2_linear_28_446)"/>
<path d="M138.637 26.0247C138.637 23.9199 139.13 22.1726 140.115 20.7829C141.113 19.3932 142.449 18.3543 144.122 17.6661C145.809 16.9645 147.691 16.6137 149.769 16.6137C151.954 16.6137 153.897 16.8971 155.597 17.4638C157.311 18.0304 158.66 18.894 159.645 20.0543C160.63 21.2147 161.123 22.6853 161.123 24.4663C161.123 25.91 160.698 27.185 159.847 28.2914C159.011 29.3978 157.655 30.2681 155.78 30.9022C156.859 31.199 157.857 31.651 158.775 32.2582C159.692 32.8654 160.428 33.6412 160.981 34.5856C161.534 35.5301 161.811 36.6635 161.811 37.9857C161.811 39.9017 161.257 41.514 160.151 42.8228C159.058 44.118 157.588 45.0962 155.739 45.7574C153.904 46.4185 151.867 46.7423 149.627 46.7288C146.105 46.7153 143.373 45.8653 141.43 44.1788C139.487 42.4922 138.496 40.1782 138.455 37.2369H144.142C144.426 38.91 145.067 40.1175 146.065 40.8596C147.077 41.5882 148.284 41.9525 149.688 41.9525C151.509 41.9525 152.933 41.568 153.958 40.7989C154.997 40.0163 155.516 39.0179 155.516 37.8036C155.516 36.5488 154.983 35.5571 153.918 34.8285C152.865 34.0864 151.523 33.6951 149.89 33.6547L147.097 33.5535V28.8581L149.607 28.7164C151.185 28.649 152.454 28.2509 153.412 27.5224C154.37 26.7803 154.849 25.8493 154.849 24.7294C154.849 23.6635 154.356 22.8068 153.371 22.1591C152.4 21.5115 151.158 21.1877 149.647 21.1877C148.258 21.1877 147.043 21.552 146.004 22.2806C144.965 22.9957 144.392 24.2437 144.284 26.0247H138.637Z" fill="#FAFAFA"/>
<path d="M48.2644 92.8329C48.2644 77.7781 60.4687 65.5738 75.5235 65.5738C90.5784 65.5738 102.783 77.7781 102.783 92.8329C102.783 107.888 90.5784 120.092 75.5235 120.092C60.4687 120.092 48.2644 107.888 48.2644 92.8329Z" fill="url(#paint3_linear_28_446)"/>
<path d="M77.3196 78.4939H83.1281V96.3241H87.6413V101.283H83.1281V107.759H77.4411L77.4613 101.283H63.9824V96.4253L77.3196 78.4939ZM69.4468 96.3241H77.4613V85.5977L69.4468 96.3241Z" fill="#FAFAFA"/>
<path d="M109.34 92.8329C109.34 77.7781 121.544 65.5738 136.599 65.5738C151.654 65.5738 163.858 77.7781 163.858 92.8329C163.858 107.888 151.654 120.092 136.599 120.092C121.544 120.092 109.34 107.888 109.34 92.8329Z" fill="url(#paint4_linear_28_446)"/>
<path d="M127.779 78.4939H146.581L146.358 83.3309H132.454L131.887 90.3942C132.967 89.7871 133.992 89.3486 134.964 89.0787C135.949 88.8089 137.028 88.6739 138.202 88.6739C140.145 88.6739 141.892 89.045 143.444 89.7871C144.995 90.5157 146.223 91.5883 147.127 93.005C148.031 94.4217 148.483 96.1487 148.483 98.1861C148.483 100.25 148.018 102.031 147.087 103.529C146.156 105.027 144.833 106.18 143.12 106.99C141.42 107.799 139.403 108.204 137.069 108.204C135.153 108.204 133.372 107.907 131.726 107.314C130.079 106.72 128.656 105.911 127.455 104.885C126.254 103.846 125.344 102.659 124.723 101.323L129.337 98.5909C130.133 99.9671 131.085 101.121 132.191 102.052C133.297 102.983 134.721 103.448 136.461 103.448C138.215 103.448 139.625 102.983 140.691 102.052C141.757 101.121 142.29 99.9064 142.29 98.4087C142.29 97.0055 141.764 95.8317 140.711 94.8872C139.673 93.9292 138.323 93.4503 136.664 93.4503C135.76 93.4503 134.923 93.5717 134.154 93.8146C133.399 94.0574 132.528 94.5701 131.543 95.3527C131.354 95.4336 131.22 95.4741 131.139 95.4741C131.071 95.4741 130.936 95.4269 130.734 95.3325L126.443 93.3491L127.779 78.4939Z" fill="#FAFAFA"/>
<path d="M170.416 92.8329C170.416 77.7781 182.62 65.5738 197.675 65.5738C212.73 65.5738 224.934 77.7781 224.934 92.8329C224.934 107.888 212.73 120.092 197.675 120.092C182.62 120.092 170.416 107.888 170.416 92.8329Z" fill="url(#paint5_linear_28_446)"/>
<path d="M198.38 78.0891C200.201 78.0891 201.888 78.4264 203.44 79.1011C205.005 79.7622 206.273 80.7269 207.244 81.9952C208.229 83.25 208.769 84.7611 208.864 86.5286H203.46C202.731 84.0191 201.078 82.7643 198.501 82.7643C196.397 82.7643 194.825 83.6413 193.786 85.3953C192.76 87.1493 192.389 89.4498 192.673 92.2967C193.347 91.3387 194.278 90.5899 195.466 90.0502C196.653 89.5105 197.941 89.2406 199.331 89.2406C201.301 89.2406 203.028 89.6117 204.512 90.3537C206.01 91.0958 207.177 92.1415 208.014 93.4907C208.85 94.8265 209.268 96.3984 209.268 98.2063C209.268 100.122 208.796 101.836 207.852 103.347C206.921 104.845 205.619 106.032 203.946 106.909C202.272 107.772 200.336 108.204 198.137 108.204C195.641 108.204 193.489 107.604 191.681 106.403C189.886 105.202 188.503 103.516 187.532 101.343C186.574 99.171 186.095 96.621 186.095 93.6931C186.095 90.4819 186.581 87.7092 187.552 85.375C188.537 83.0409 189.947 81.2464 191.782 79.9916C193.617 78.7233 195.816 78.0891 198.38 78.0891ZM197.955 93.6526C197.118 93.6526 196.309 93.8415 195.526 94.2193C194.757 94.5836 194.123 95.0559 193.624 95.636C193.138 96.2027 192.895 96.7829 192.895 97.3766C192.882 99.333 193.34 100.871 194.271 101.991C195.202 103.111 196.424 103.671 197.935 103.671C199.338 103.671 200.532 103.185 201.517 102.214C202.515 101.242 203.015 100.001 203.015 98.4897C203.015 96.8706 202.529 95.663 201.557 94.867C200.599 94.0574 199.399 93.6526 197.955 93.6526Z" fill="#FAFAFA"/>
<rect x="83.5103" y="130.328" width="77.0492" height="77.0492" rx="38.5246" fill="url(#paint6_linear_28_446)"/>
<g filter="url(#filter0_d_28_446)">
<path d="M126.138 157.826H107.398V150.748H138.381L117.958 191.942H109.138L126.138 157.826Z" fill="white"/>
</g>
<path fill-rule="evenodd" clip-rule="evenodd" d="M185.714 123.735C185.632 121.354 182.551 120.469 181.218 122.444L177.122 128.511C176.526 129.394 175.429 129.792 174.405 129.498L167.37 127.478C165.08 126.82 163.287 129.477 164.753 131.354L169.257 137.124C169.912 137.964 169.953 139.131 169.357 140.013L165.261 146.08C163.928 148.055 165.9 150.581 168.139 149.767L175.019 147.267C176.02 146.903 177.141 147.225 177.797 148.065L182.301 153.835C183.767 155.712 186.779 154.618 186.697 152.237L186.445 144.921C186.408 143.856 187.061 142.889 188.062 142.525L194.942 140.024C197.181 139.211 197.07 136.007 194.781 135.35L187.745 133.329C186.721 133.035 186.003 132.115 185.966 131.051L185.714 123.735ZM55.8779 172.418C54.6073 171.815 53.3065 173.19 53.9795 174.425L56.0477 178.221C56.3486 178.773 56.2597 179.456 55.8273 179.913L52.8564 183.053C51.8896 184.075 52.7951 185.737 54.1779 185.479L58.427 184.685C59.0454 184.569 59.6678 184.865 59.9688 185.417L62.037 189.213C62.71 190.448 64.5705 190.101 64.7521 188.706L65.31 184.419C65.3912 183.796 65.8649 183.295 66.4833 183.179L70.7324 182.385C72.1152 182.127 72.3595 180.25 71.0889 179.646L67.1846 177.791C66.6164 177.521 66.2867 176.916 66.3679 176.292L66.9258 172.006C67.1074 170.611 65.3979 169.798 64.4311 170.82L61.4602 173.96C61.0278 174.417 60.3504 174.544 59.7822 174.274L55.8779 172.418ZM68.0694 150.852C68.0798 150.032 69.1332 149.704 69.6067 150.374L71.0616 152.431C71.2733 152.73 71.6537 152.859 72.0039 152.75L74.4097 152.002C75.1926 151.759 75.8296 152.659 75.3393 153.316L73.8327 155.336C73.6134 155.63 73.6083 156.031 73.82 156.331L75.2749 158.387C75.7484 159.057 75.0887 159.941 74.3122 159.678L71.9262 158.869C71.5789 158.751 71.1953 158.87 70.9761 159.164L69.4694 161.184C68.9791 161.841 67.9344 161.486 67.9448 160.667L67.9768 158.147C67.9814 157.781 67.7495 157.453 67.4022 157.335L65.0161 156.526C64.2397 156.263 64.2537 155.16 65.0366 154.916L67.4424 154.168C67.7926 154.06 68.0328 153.738 68.0374 153.371L68.0694 150.852ZM183.287 166.939C183.75 165.809 182.496 164.746 181.457 165.388L178.264 167.362C177.799 167.649 177.202 167.604 176.785 167.251L173.922 164.824C172.99 164.034 171.592 164.898 171.881 166.084L172.771 169.731C172.901 170.262 172.674 170.816 172.209 171.103L169.015 173.076C167.976 173.719 168.366 175.315 169.584 175.407L173.328 175.687C173.872 175.728 174.329 176.115 174.458 176.646L175.348 180.293C175.638 181.48 177.277 181.602 177.74 180.472L179.164 176.999C179.371 176.493 179.88 176.178 180.425 176.219L184.168 176.5C185.387 176.591 186.01 175.07 185.078 174.28L182.215 171.853C181.798 171.5 181.656 170.918 181.863 170.413L183.287 166.939Z" fill="url(#paint7_linear_28_446)"/>
<defs>
<filter id="filter0_d_28_446" x="107.398" y="150.748" width="32.6223" height="44.4732" filterUnits="userSpaceOnUse" color-interpolation-filters="sRGB">
<feFlood flood-opacity="0" result="BackgroundImageFix"/>
<feColorMatrix in="SourceAlpha" type="matrix" values="0 0 0 0 0 0 0 0 0 0 0 0 0 0 0 0 0 0 127 0" result="hardAlpha"/>
<feOffset dx="1.63934" dy="3.27869"/>
<feComposite in2="hardAlpha" operator="out"/>
<feColorMatrix type="matrix" values="0 0 0 0 0.7875 0 0 0 0 0.2835 0 0 0 0 0 0 0 0 0.25 0"/>
<feBlend mode="normal" in2="BackgroundImageFix" result="effect1_dropShadow_28_446"/>
<feBlend mode="normal" in="SourceGraphic" in2="effect1_dropShadow_28_446" result="shape"/>
</filter>
<linearGradient id="paint0_linear_28_446" x1="8.67402" y1="-0.444799" x2="59.169" y2="50.7973" gradientUnits="userSpaceOnUse">
<stop stop-color="#D9F46D"/>
<stop offset="1" stop-color="#00D179"/>
</linearGradient>
<linearGradient id="paint1_linear_28_446" x1="69.7496" y1="-0.444799" x2="120.245" y2="50.7973" gradientUnits="userSpaceOnUse">
<stop stop-color="#D9F46D"/>
<stop offset="1" stop-color="#00D179"/>
</linearGradient>
<linearGradient id="paint2_linear_28_446" x1="130.825" y1="-0.444799" x2="181.32" y2="50.7973" gradientUnits="userSpaceOnUse">
<stop stop-color="#D9F46D"/>
<stop offset="1" stop-color="#00D179"/>
</linearGradient>
<linearGradient id="paint3_linear_28_446" x1="56.215" y1="61.0306" x2="106.71" y2="112.273" gradientUnits="userSpaceOnUse">
<stop stop-color="#D9F46D"/>
<stop offset="1" stop-color="#00D179"/>
</linearGradient>
<linearGradient id="paint4_linear_28_446" x1="117.291" y1="61.0306" x2="167.786" y2="112.273" gradientUnits="userSpaceOnUse">
<stop stop-color="#D9F46D"/>
<stop offset="1" stop-color="#00D179"/>
</linearGradient>
<linearGradient id="paint5_linear_28_446" x1="178.366" y1="61.0306" x2="228.861" y2="112.273" gradientUnits="userSpaceOnUse">
<stop stop-color="#D9F46D"/>
<stop offset="1" stop-color="#00D179"/>
</linearGradient>
<linearGradient id="paint6_linear_28_446" x1="97.957" y1="115.881" x2="162.896" y2="217.929" gradientUnits="userSpaceOnUse">
<stop stop-color="#FFC960"/>
<stop offset="1" stop-color="#FF1F1F"/>
</linearGradient>
<linearGradient id="paint7_linear_28_446" x1="151.527" y1="129.934" x2="143.013" y2="187.919" gradientUnits="userSpaceOnUse">
<stop stop-color="#FFCD4D"/>
<stop offset="1" stop-color="#FA8700"/>
</linearGradient>
</defs>
</svg>
