<svg width="40" height="41" viewBox="0 0 40 41" fill="none" xmlns="http://www.w3.org/2000/svg">
<path fill-rule="evenodd" clip-rule="evenodd" d="M40 20.5C40 9.4543 31.0457 0.499999 20 0.499999C8.9543 0.5 -1.35705e-06 9.45431 -8.74228e-07 20.5C-3.91405e-07 31.5457 8.9543 40.5 20 40.5C31.0457 40.5 40 31.5457 40 20.5ZM31.0872 18.8996C31.8598 19.8267 31.8598 21.1734 31.0872 22.1005L22.7539 32.1005C21.87 33.1612 20.2936 33.3045 19.2329 32.4206C18.1722 31.5367 18.0289 29.9603 18.9128 28.8996L23.8289 23.0003L10.8333 23.0003C9.45263 23.0003 8.33334 21.881 8.33334 20.5003C8.33333 19.1196 9.45262 18.0003 10.8333 18.0003L23.8292 18.0003L18.9128 12.1005C18.0289 11.0398 18.1722 9.46342 19.2329 8.57951C20.2936 7.6956 21.87 7.83891 22.7539 8.8996L31.0872 18.8996Z" fill="white"/>
</svg>
