<svg width="34" height="32" viewBox="0 0 34 32" fill="none" xmlns="http://www.w3.org/2000/svg">
<path d="M10 9.5V7.3125C10 4.65463 12.6863 2.5 16 2.5C19.3137 2.5 22 4.65463 22 7.3125V9.5" stroke="white" stroke-width="2" stroke-linecap="round"/>
<path d="M10 9.5V7.3125C10 4.65463 12.6863 2.5 16 2.5C19.3137 2.5 22 4.65463 22 7.3125V9.5" stroke="#1F9FFC" stroke-width="2" stroke-linecap="round"/>
<path d="M5.98523 12.378C6.04972 11.3228 6.92432 10.5 7.98151 10.5H24.0185C25.0757 10.5 25.9503 11.3228 26.0148 12.378L26.7406 24.256C26.8813 26.5568 25.0532 28.5 22.7481 28.5H9.25191C6.94681 28.5 5.11875 26.5568 5.25935 24.256L5.98523 12.378Z" stroke="white" stroke-width="2"/>
<path d="M5.98523 12.378C6.04972 11.3228 6.92432 10.5 7.98151 10.5H24.0185C25.0757 10.5 25.9503 11.3228 26.0148 12.378L26.7406 24.256C26.8813 26.5568 25.0532 28.5 22.7481 28.5H9.25191C6.94681 28.5 5.11875 26.5568 5.25935 24.256L5.98523 12.378Z" stroke="#1F9FFC" stroke-width="2"/>
<rect x="16.5" y="2" width="17" height="17" rx="8.5" fill="#E60013"/>
<path d="M23.389 13.936H24.433V9.78705L23.236 10.489V9.47205L24.829 8.50005H25.567V13.936H26.602V14.8H23.389V13.936Z" fill="white"/>
<rect x="16.5" y="2" width="17" height="17" rx="8.5" stroke="white"/>
</svg>
