<svg width="32" height="32" viewBox="0 0 32 32" fill="none" xmlns="http://www.w3.org/2000/svg">
<path d="M25.2143 12.9C25.2143 16.2859 23.7768 19.9924 21.8136 22.8659C20.8365 24.296 19.7553 25.4805 18.7057 26.2969C17.6357 27.1291 16.7018 27.5 16 27.5V29.5C17.341 29.5 18.7053 28.8309 19.9336 27.8756C21.1822 26.9045 22.3992 25.554 23.465 23.9941C25.5874 20.8876 27.2143 16.7941 27.2143 12.9H25.2143ZM16 3.5C21.072 3.5 25.2143 7.69146 25.2143 12.9H27.2143C27.2143 6.62102 22.2104 1.5 16 1.5V3.5ZM6.78571 12.9C6.78571 7.69146 10.928 3.5 16 3.5V1.5C9.78961 1.5 4.78571 6.62102 4.78571 12.9H6.78571ZM16 27.5C15.2982 27.5 14.3643 27.1291 13.2943 26.2969C12.2447 25.4805 11.1635 24.296 10.1864 22.8659C8.22316 19.9924 6.78571 16.2859 6.78571 12.9H4.78571C4.78571 16.7941 6.41255 20.8876 8.53503 23.9941C9.60081 25.554 10.8178 26.9045 12.0664 27.8756C13.2947 28.8309 14.659 29.5 16 29.5V27.5ZM19.643 11.7857C19.643 13.7976 18.012 15.4285 16.0001 15.4285V17.4285C19.1166 17.4285 21.643 14.9021 21.643 11.7857H19.643ZM16.0001 8.14282C18.012 8.14282 19.643 9.77379 19.643 11.7857H21.643C21.643 8.66922 19.1166 6.14282 16.0001 6.14282V8.14282ZM12.3572 11.7857C12.3572 9.77379 13.9882 8.14282 16.0001 8.14282V6.14282C12.8836 6.14282 10.3572 8.66922 10.3572 11.7857H12.3572ZM16.0001 15.4285C13.9882 15.4285 12.3572 13.7976 12.3572 11.7857H10.3572C10.3572 14.9021 12.8836 17.4285 16.0001 17.4285V15.4285Z" fill="white"/>
<path d="M25.2143 12.9C25.2143 16.2859 23.7768 19.9924 21.8136 22.8659C20.8365 24.296 19.7553 25.4805 18.7057 26.2969C17.6357 27.1291 16.7018 27.5 16 27.5V29.5C17.341 29.5 18.7053 28.8309 19.9336 27.8756C21.1822 26.9045 22.3992 25.554 23.465 23.9941C25.5874 20.8876 27.2143 16.7941 27.2143 12.9H25.2143ZM16 3.5C21.072 3.5 25.2143 7.69146 25.2143 12.9H27.2143C27.2143 6.62102 22.2104 1.5 16 1.5V3.5ZM6.78571 12.9C6.78571 7.69146 10.928 3.5 16 3.5V1.5C9.78961 1.5 4.78571 6.62102 4.78571 12.9H6.78571ZM16 27.5C15.2982 27.5 14.3643 27.1291 13.2943 26.2969C12.2447 25.4805 11.1635 24.296 10.1864 22.8659C8.22316 19.9924 6.78571 16.2859 6.78571 12.9H4.78571C4.78571 16.7941 6.41255 20.8876 8.53503 23.9941C9.60081 25.554 10.8178 26.9045 12.0664 27.8756C13.2947 28.8309 14.659 29.5 16 29.5V27.5ZM19.643 11.7857C19.643 13.7976 18.012 15.4285 16.0001 15.4285V17.4285C19.1166 17.4285 21.643 14.9021 21.643 11.7857H19.643ZM16.0001 8.14282C18.012 8.14282 19.643 9.77379 19.643 11.7857H21.643C21.643 8.66922 19.1166 6.14282 16.0001 6.14282V8.14282ZM12.3572 11.7857C12.3572 9.77379 13.9882 8.14282 16.0001 8.14282V6.14282C12.8836 6.14282 10.3572 8.66922 10.3572 11.7857H12.3572ZM16.0001 15.4285C13.9882 15.4285 12.3572 13.7976 12.3572 11.7857H10.3572C10.3572 14.9021 12.8836 17.4285 16.0001 17.4285V15.4285Z" fill="#1F9FFC"/>
</svg>
