<svg width="28" height="28" viewBox="0 0 28 28" fill="none" xmlns="http://www.w3.org/2000/svg">
<g clip-path="url(#clip0_2_642)">
<path fill-rule="evenodd" clip-rule="evenodd" d="M14 0C21.732 0 28 6.26801 28 14C28 20.9877 22.8804 26.7797 16.1875 27.8299V18.0469H19.4496L20.0703 14H16.1875V11.375C16.1875 11.3748 16.1875 11.3747 16.1875 11.3745C16.1877 10.3357 16.6646 9.3225 18.1569 9.19989C18.2564 9.19172 18.3604 9.1875 18.4691 9.1875H20.2344V5.74219C20.2344 5.74219 20.0921 5.71791 19.8519 5.68383C19.4369 5.62497 18.7297 5.53685 17.9583 5.49398C17.6772 5.47836 17.3876 5.46875 17.1005 5.46875C13.9027 5.46875 11.8125 7.40688 11.8125 10.9156V14H8.25781V18.0469H11.8125V27.8299C5.11957 26.7797 0 20.9877 0 14C0 6.26801 6.26801 0 14 0Z" fill="#828282"/>
</g>
<defs>
<clipPath id="clip0_2_642">
<rect width="28" height="28" fill="white"/>
</clipPath>
</defs>
</svg>
