<svg width="22" height="21" viewBox="0 0 22 21" fill="none" xmlns="http://www.w3.org/2000/svg">
<g clip-path="url(#clip0_2_837)">
<path fill-rule="evenodd" clip-rule="evenodd" d="M10.8639 2.99154C12.0198 4.99359 10.5484 5.84312 9.81266 6.26788C9.77039 6.29228 9.72778 6.31545 9.68488 6.33738C7.23964 7.76259 7.90576 9.76107 9.17782 11.9643C10.448 14.1644 11.8434 15.7391 14.2936 14.3449C14.3374 14.3163 14.3823 14.2887 14.4282 14.2621C15.8996 13.4126 16.6353 12.9878 17.7913 14.99C18.9315 16.9648 17.2701 17.9601 16.0548 18.6622C16.038 18.672 16.0213 18.6817 16.0045 18.6914C12.3259 20.8152 8.78625 18.0824 6.2349 13.6634C3.69032 9.25602 3.08989 4.83592 6.73612 2.70555L6.76518 2.68854C7.98414 1.98477 9.70802 0.989492 10.8639 2.99154Z" fill="#BCBCBC"/>
</g>
<defs>
<clipPath id="clip0_2_837">
<rect width="21" height="21" fill="white" transform="translate(0.5)"/>
</clipPath>
</defs>
</svg>
