<svg width="32" height="32" viewBox="0 0 32 32" fill="none" xmlns="http://www.w3.org/2000/svg">
<g clip-path="url(#clip0_2_157)">
<path d="M13.9933 9.65829L13.5387 8.76762L13.5137 8.78036L13.4895 8.79449L13.9933 9.65829ZM21.0214 21.8572L21.5163 22.7261L21.5426 22.7111L21.5679 22.6946L21.0214 21.8572ZM23.6798 28.4508L23.1796 27.5849L23.1767 27.5866L23.6798 28.4508ZM9.51109 4.11768L10.0147 4.98163L10.0152 4.98132L9.51109 4.11768ZM9.54672 4.09689L9.04672 3.23085L9.04261 3.23325L9.54672 4.09689ZM14.6905 10.4171C15.2188 10.1121 16.2921 9.51374 16.9255 8.47781C17.259 7.93238 17.4697 7.27239 17.4422 6.49909C17.415 5.73672 17.1588 4.92523 16.6584 4.0586L14.9264 5.0586C15.3067 5.71735 15.4307 6.2117 15.4435 6.5703C15.4558 6.91797 15.3662 7.19408 15.2192 7.43452C14.8916 7.97036 14.2833 8.34283 13.6905 8.68509L14.6905 10.4171ZM14.448 10.549C14.5295 10.5073 14.6104 10.4634 14.6905 10.4171L13.6905 8.68509C13.6402 8.71414 13.5896 8.74164 13.5387 8.76762L14.448 10.549ZM14.089 17.7313C13.1217 16.0558 12.5097 14.6522 12.485 13.4794C12.4733 12.9249 12.5942 12.43 12.88 11.9683C13.1713 11.4976 13.6693 11.0049 14.4971 10.5221L13.4895 8.79449C12.4557 9.39747 11.6843 10.0998 11.1794 10.9157C10.6689 11.7405 10.4665 12.6238 10.4854 13.5215C10.5219 15.2531 11.3864 17.0502 12.357 18.7313L14.089 17.7313ZM20.5265 20.9882C19.6965 21.4609 19.0225 21.6442 18.4705 21.6601C17.9288 21.6757 17.4404 21.5325 16.9664 21.2447C15.9641 20.6362 15.0554 19.405 14.089 17.7313L12.357 18.7313C13.3267 20.4109 14.4495 22.0564 15.9285 22.9543C16.6952 23.4198 17.5599 23.6872 18.5281 23.6593C19.4859 23.6316 20.4786 23.3171 21.5163 22.7261L20.5265 20.9882ZM21.5679 22.6946C21.6185 22.6616 21.6705 22.6297 21.7237 22.5989L20.7237 20.8669C20.6389 20.9158 20.5559 20.9668 20.4748 21.0198L21.5679 22.6946ZM21.7237 22.5989C22.2994 22.2665 22.7367 22.0156 23.1219 21.8479C23.5027 21.6821 23.7342 21.6435 23.8926 21.6552C24.1287 21.6727 24.6181 21.845 25.4824 23.3421L27.2145 22.3421C26.3174 20.7882 25.3655 19.7587 24.0401 19.6606C23.4177 19.6146 22.8385 19.7899 22.3234 20.0142C21.8128 20.2365 21.2691 20.552 20.7237 20.8669L21.7237 22.5989ZM25.4824 23.3421C25.8473 23.974 25.9432 24.4493 25.9289 24.8022C25.9148 25.1502 25.7902 25.4689 25.5572 25.7864C25.0501 26.4775 24.1464 27.0265 23.1796 27.5849L24.1799 29.3168C25.0669 28.8045 26.3698 28.0598 27.1697 26.9696C27.5902 26.3964 27.8941 25.7025 27.9273 24.8829C27.9602 24.0682 27.7218 23.2209 27.2145 22.3421L25.4824 23.3421ZM24.1256 29.3482C24.1448 29.3372 24.1638 29.3261 24.1829 29.315L23.1767 27.5866C23.1597 27.5965 23.1426 27.6064 23.1256 27.6162L24.1256 29.3482ZM7.87259 21.3204C9.85893 24.7608 12.287 27.652 15.0343 29.2539C17.8415 30.8909 20.976 31.1667 24.1256 29.3482L23.1256 27.6162C20.6698 29.0341 18.3047 28.8458 16.0417 27.5262C13.7188 26.1717 11.5061 23.6137 9.60464 20.3204L7.87259 21.3204ZM9.0075 3.25374C5.87841 5.07769 4.56332 7.92867 4.58288 11.1719C4.60203 14.3467 5.8904 17.8871 7.87259 21.3204L9.60464 20.3204C7.70735 17.0342 6.59904 13.8454 6.58284 11.1598C6.56706 8.54265 7.57794 6.402 10.0147 4.98163L9.0075 3.25374ZM9.04261 3.23325L9.00698 3.25405L10.0152 4.98132L10.0508 4.96053L9.04261 3.23325ZM16.6584 4.0586C16.1461 3.17116 15.5243 2.53751 14.7935 2.1601C14.0587 1.78067 13.2985 1.70403 12.5875 1.78856C11.2359 1.94926 9.93061 2.72055 9.04672 3.23086L10.0467 4.96291C11.0203 4.40081 11.9572 3.87759 12.8237 3.77457C13.2218 3.72723 13.5646 3.77642 13.8758 3.93714C14.1909 4.09987 14.5581 4.42067 14.9264 5.0586L16.6584 4.0586Z" fill="white"/>
<path d="M13.9933 9.65829L13.5387 8.76762L13.5137 8.78036L13.4895 8.79449L13.9933 9.65829ZM21.0214 21.8572L21.5163 22.7261L21.5426 22.7111L21.5679 22.6946L21.0214 21.8572ZM23.6798 28.4508L23.1796 27.5849L23.1767 27.5866L23.6798 28.4508ZM9.51109 4.11768L10.0147 4.98163L10.0152 4.98132L9.51109 4.11768ZM9.54672 4.09689L9.04672 3.23085L9.04261 3.23325L9.54672 4.09689ZM14.6905 10.4171C15.2188 10.1121 16.2921 9.51374 16.9255 8.47781C17.259 7.93238 17.4697 7.27239 17.4422 6.49909C17.415 5.73672 17.1588 4.92523 16.6584 4.0586L14.9264 5.0586C15.3067 5.71735 15.4307 6.2117 15.4435 6.5703C15.4558 6.91797 15.3662 7.19408 15.2192 7.43452C14.8916 7.97036 14.2833 8.34283 13.6905 8.68509L14.6905 10.4171ZM14.448 10.549C14.5295 10.5073 14.6104 10.4634 14.6905 10.4171L13.6905 8.68509C13.6402 8.71414 13.5896 8.74164 13.5387 8.76762L14.448 10.549ZM14.089 17.7313C13.1217 16.0558 12.5097 14.6522 12.485 13.4794C12.4733 12.9249 12.5942 12.43 12.88 11.9683C13.1713 11.4976 13.6693 11.0049 14.4971 10.5221L13.4895 8.79449C12.4557 9.39747 11.6843 10.0998 11.1794 10.9157C10.6689 11.7405 10.4665 12.6238 10.4854 13.5215C10.5219 15.2531 11.3864 17.0502 12.357 18.7313L14.089 17.7313ZM20.5265 20.9882C19.6965 21.4609 19.0225 21.6442 18.4705 21.6601C17.9288 21.6757 17.4404 21.5325 16.9664 21.2447C15.9641 20.6362 15.0554 19.405 14.089 17.7313L12.357 18.7313C13.3267 20.4109 14.4495 22.0564 15.9285 22.9543C16.6952 23.4198 17.5599 23.6872 18.5281 23.6593C19.4859 23.6316 20.4786 23.3171 21.5163 22.7261L20.5265 20.9882ZM21.5679 22.6946C21.6185 22.6616 21.6705 22.6297 21.7237 22.5989L20.7237 20.8669C20.6389 20.9158 20.5559 20.9668 20.4748 21.0198L21.5679 22.6946ZM21.7237 22.5989C22.2994 22.2665 22.7367 22.0156 23.1219 21.8479C23.5027 21.6821 23.7342 21.6435 23.8926 21.6552C24.1287 21.6727 24.6181 21.845 25.4824 23.3421L27.2145 22.3421C26.3174 20.7882 25.3655 19.7587 24.0401 19.6606C23.4177 19.6146 22.8385 19.7899 22.3234 20.0142C21.8128 20.2365 21.2691 20.552 20.7237 20.8669L21.7237 22.5989ZM25.4824 23.3421C25.8473 23.974 25.9432 24.4493 25.9289 24.8022C25.9148 25.1502 25.7902 25.4689 25.5572 25.7864C25.0501 26.4775 24.1464 27.0265 23.1796 27.5849L24.1799 29.3168C25.0669 28.8045 26.3698 28.0598 27.1697 26.9696C27.5902 26.3964 27.8941 25.7025 27.9273 24.8829C27.9602 24.0682 27.7218 23.2209 27.2145 22.3421L25.4824 23.3421ZM24.1256 29.3482C24.1448 29.3372 24.1638 29.3261 24.1829 29.315L23.1767 27.5866C23.1597 27.5965 23.1426 27.6064 23.1256 27.6162L24.1256 29.3482ZM7.87259 21.3204C9.85893 24.7608 12.287 27.652 15.0343 29.2539C17.8415 30.8909 20.976 31.1667 24.1256 29.3482L23.1256 27.6162C20.6698 29.0341 18.3047 28.8458 16.0417 27.5262C13.7188 26.1717 11.5061 23.6137 9.60464 20.3204L7.87259 21.3204ZM9.0075 3.25374C5.87841 5.07769 4.56332 7.92867 4.58288 11.1719C4.60203 14.3467 5.8904 17.8871 7.87259 21.3204L9.60464 20.3204C7.70735 17.0342 6.59904 13.8454 6.58284 11.1598C6.56706 8.54265 7.57794 6.402 10.0147 4.98163L9.0075 3.25374ZM9.04261 3.23325L9.00698 3.25405L10.0152 4.98132L10.0508 4.96053L9.04261 3.23325ZM16.6584 4.0586C16.1461 3.17116 15.5243 2.53751 14.7935 2.1601C14.0587 1.78067 13.2985 1.70403 12.5875 1.78856C11.2359 1.94926 9.93061 2.72055 9.04672 3.23086L10.0467 4.96291C11.0203 4.40081 11.9572 3.87759 12.8237 3.77457C13.2218 3.72723 13.5646 3.77642 13.8758 3.93714C14.1909 4.09987 14.5581 4.42067 14.9264 5.0586L16.6584 4.0586Z" fill="#1F9FFC"/>
</g>
<defs>
<clipPath id="clip0_2_157">
<rect width="32" height="32" fill="white"/>
</clipPath>
</defs>
</svg>
