<svg width="32" height="32" viewBox="0 0 32 32" fill="none" xmlns="http://www.w3.org/2000/svg">
<path d="M20 7C20 9.20914 19 12 16 12C13 12 12 9.20914 12 7C12 4.79086 13 3 16 3C19 3 20 4.79086 20 7Z" stroke="white" stroke-width="2"/>
<path d="M20 7C20 9.20914 19 12 16 12C13 12 12 9.20914 12 7C12 4.79086 13 3 16 3C19 3 20 4.79086 20 7Z" stroke="#1F9FFC" stroke-width="2"/>
<path d="M5.00295 19.9867C5.03798 17.8201 6.74522 16.1319 8.90035 15.9058C10.8752 15.6987 13.4376 15.5 16 15.5C18.5624 15.5 21.1248 15.6987 23.0996 15.9058C25.2548 16.1319 26.962 17.8201 26.997 19.9867C27.0154 21.1226 26.9519 22.3316 26.7027 23.3C26.0338 25.9 24.6959 28.5 16 28.5C7.30405 28.5 5.96622 25.9 5.2973 23.3C5.04814 22.3316 4.98459 21.1226 5.00295 19.9867Z" stroke="white" stroke-width="2"/>
<path d="M5.00295 19.9867C5.03798 17.8201 6.74522 16.1319 8.90035 15.9058C10.8752 15.6987 13.4376 15.5 16 15.5C18.5624 15.5 21.1248 15.6987 23.0996 15.9058C25.2548 16.1319 26.962 17.8201 26.997 19.9867C27.0154 21.1226 26.9519 22.3316 26.7027 23.3C26.0338 25.9 24.6959 28.5 16 28.5C7.30405 28.5 5.96622 25.9 5.2973 23.3C5.04814 22.3316 4.98459 21.1226 5.00295 19.9867Z" stroke="#1F9FFC" stroke-width="2"/>
</svg>
