<svg width="21" height="20" viewBox="0 0 21 20" fill="none" xmlns="http://www.w3.org/2000/svg">
<g clip-path="url(#clip0_2_821)">
<path fill-rule="evenodd" clip-rule="evenodd" d="M19.4554 4.02847C19.7657 4.34077 19.9886 4.7291 20.1017 5.15459C20.5198 6.72504 20.5198 10 20.5198 10C20.5198 10 20.5198 13.275 20.1017 14.8455C19.9886 15.271 19.7657 15.6593 19.4554 15.9716C19.1451 16.2839 18.7582 16.5092 18.3335 16.625C16.7698 17.0455 10.5198 17.0455 10.5198 17.0455C10.5198 17.0455 4.26984 17.0455 2.7062 16.625C2.28144 16.5092 1.89455 16.2839 1.58424 15.9716C1.27393 15.6593 1.05109 15.271 0.938018 14.8455C0.519836 13.275 0.519836 10 0.519836 10C0.519836 10 0.519836 6.72504 0.938018 5.15459C1.05109 4.7291 1.27393 4.34077 1.58424 4.02847C1.89455 3.71617 2.28144 3.49084 2.7062 3.37504C4.26984 2.95459 10.5198 2.95459 10.5198 2.95459C10.5198 2.95459 16.7698 2.95459 18.3335 3.37504C18.7582 3.49084 19.1451 3.71617 19.4554 4.02847ZM13.7017 10L8.4744 7.02616V12.9739L13.7017 10Z" fill="#BCBCBC"/>
</g>
<defs>
<clipPath id="clip0_2_821">
<rect width="20" height="20" fill="white" transform="translate(0.5)"/>
</clipPath>
</defs>
</svg>
