<svg width="28" height="28" viewBox="0 0 28 28" fill="none" xmlns="http://www.w3.org/2000/svg">
<g clip-path="url(#clip0_2_643)">
<path fill-rule="evenodd" clip-rule="evenodd" d="M26.5376 5.63978C26.972 6.07701 27.284 6.62067 27.4423 7.21635C28.0278 9.41499 28.0278 14 28.0278 14C28.0278 14 28.0278 18.585 27.4423 20.7836C27.284 21.3793 26.972 21.923 26.5376 22.3602C26.1032 22.7974 25.5615 23.1129 24.9669 23.275C22.7778 23.8636 14.0278 23.8636 14.0278 23.8636C14.0278 23.8636 5.27777 23.8636 3.08868 23.275C2.49402 23.1129 1.95237 22.7974 1.51794 22.3602C1.08351 21.923 0.771528 21.3793 0.613226 20.7836C0.027771 18.585 0.027771 14 0.027771 14C0.027771 14 0.027771 9.41499 0.613226 7.21635C0.771528 6.62067 1.08351 6.07701 1.51794 5.63978C1.95237 5.20256 2.49402 4.8871 3.08868 4.72499C5.27777 4.13635 14.0278 4.13635 14.0278 4.13635C14.0278 4.13635 22.7778 4.13635 24.9669 4.72499C25.5615 4.8871 26.1032 5.20256 26.5376 5.63978ZM18.4823 14L11.1642 9.83663V18.1634L18.4823 14Z" fill="#828282"/>
</g>
<defs>
<clipPath id="clip0_2_643">
<rect width="28" height="28" fill="white"/>
</clipPath>
</defs>
</svg>
