<svg width="20" height="20" viewBox="0 0 20 20" fill="none" xmlns="http://www.w3.org/2000/svg">
<path fill-rule="evenodd" clip-rule="evenodd" d="M3.1116 17.4358C4.04076 17.5385 5.20244 17.2735 6.02728 16.8731C9.57413 18.8335 15.099 18.7599 18.4973 16.6521C17.8544 17.5972 17.0094 18.3582 15.9829 18.9024C14.7241 19.5773 13.3061 19.9337 10.8796 19.9337H9.12036C6.69384 19.9337 5.27584 19.5773 4.01708 18.9024C2.75833 18.2276 1.76497 17.2418 1.09768 15.983C0.4228 14.7242 0.0664062 13.3062 0.0664062 10.8797V9.12047C0.0664062 6.69395 0.4228 5.27595 1.09768 4.01719C1.77256 2.75841 2.75833 1.76505 4.01708 1.09776C4.16262 1.01926 4.31051 0.945067 4.46205 0.875244C4.44326 0.892942 4.42459 0.910732 4.40604 0.928614C1.08694 4.12819 0.834632 11.0638 3.64912 14.8314C3.65226 14.8369 3.65573 14.8425 3.65956 14.8482C4.09336 15.4875 3.67478 16.6062 3.02027 17.2607C2.91372 17.3597 2.95178 17.4206 3.1116 17.4358ZM4.33541 6.7998H8.22541V6.91357C8.22541 7.13345 8.19509 7.31544 8.05101 7.52776L8.03585 7.55052C8.00549 7.58844 7.93725 7.67184 7.89933 7.71732L5.39701 10.8566H8.23301V11.304C8.23301 11.486 8.08133 11.6377 7.89933 11.6377H4.22925V11.4254C4.22925 11.1676 4.28989 11.0538 4.37329 10.9325L7.03489 7.63392H4.33541V6.7998ZM13.1768 11.6377H13.7304V6.7998H12.8962V11.3571C12.8962 11.5088 13.0176 11.6377 13.1768 11.6377ZM8.42993 9.77267C8.42993 8.72623 9.27921 7.87695 10.3257 7.87695C10.7465 7.87695 11.1347 8.01233 11.4487 8.24159V7.98267H12.2298V11.6376H11.7824C11.6004 11.6376 11.4487 11.486 11.4487 11.3116V11.2997C11.1343 11.5314 10.7459 11.6684 10.3257 11.6684C9.27921 11.6684 8.42993 10.8191 8.42993 9.77267ZM9.21097 9.77267C9.21097 10.3869 9.71145 10.8874 10.3257 10.8874C10.9475 10.8874 11.4403 10.3869 11.4403 9.77267C11.4403 9.15847 10.9399 8.65799 10.3257 8.65799C9.71145 8.65799 9.21097 9.15847 9.21097 9.77267ZM16.1948 7.84644C15.1408 7.84644 14.2839 8.70332 14.2839 9.75732C14.2839 10.8114 15.1408 11.6682 16.1948 11.6682C17.2488 11.6682 18.1057 10.8114 18.1057 9.75732C18.1057 8.70332 17.2488 7.84644 16.1948 7.84644ZM16.1948 10.8872C15.573 10.8872 15.0725 10.3867 15.0725 9.76492C15.0725 9.14312 15.573 8.64264 16.1948 8.64264C16.8166 8.64264 17.3171 9.14312 17.3171 9.76492C17.3171 10.3867 16.8166 10.8872 16.1948 10.8872Z" fill="#BCBCBC"/>
</svg>
